<svg width="1074" height="453" fill="none" xmlns="http://www.w3.org/2000/svg"><mask id="mask0_158_501" style="mask-type:alpha" maskUnits="userSpaceOnUse" x="0" y="0" width="1076" height="453"><rect width="1076" height="453" fill="#D9D9D9"/></mask><g mask="url(#mask0_158_501)"><path d="M-238 652.5C-130.167 572.667 182.5 380.6 462.5 383C742.5 385.4 1047.83 180.667 1165.5 78M-110 652.5C-57.1667 597.667 173.4 447.8 585 419C904.113 396.671 1083.35 224.231 1165.5 84.6398M1213.5 -24C1204.96 6.48454 1189.31 44.1825 1165.5 84.6398M-10.5 652.5C30.5 610.667 177.1 519.8 435.5 491C758.5 455 1120.5 350 1183.5 6M166 652.5C201.833 625.333 351.9 558.5 665.5 508.5C979.1 458.5 1129.5 205.093 1165.5 84.6398" stroke="white" stroke-width="15"/></g></svg>