<svg width="231" height="142" fill="none" xmlns="http://www.w3.org/2000/svg"><g filter="url(#filter0_d_72_12185)"><mask id="mask0_72_12185" style="mask-type:luminance" maskUnits="userSpaceOnUse" x="10" y="10" width="203" height="114"><path d="M178.445 123.658L43.3325 123.6C24.6854 122.155 10 106.828 10 88.0809C10 68.3781 26.2069 52.4058 46.1991 52.4058C48.9406 52.4058 51.5976 52.7317 54.1628 53.2967C60.5353 28.7152 83.089 10.5118 110.02 10.5118C137.178 10.5118 159.897 29.0267 166.042 53.9342C169.357 52.949 172.87 52.4058 176.516 52.4058C196.508 52.4058 212.715 68.3781 212.715 88.0809C212.715 107.143 197.533 122.662 178.445 123.658Z" fill="white"/></mask><g mask="url(#mask0_72_12185)"><path d="M178.445 123.658L43.3325 123.6C24.6854 122.155 10 106.828 10 88.0809C10 68.3781 26.2069 52.4058 46.1991 52.4058C48.9406 52.4058 51.5976 52.7317 54.1628 53.2967C60.5353 28.7152 83.089 10.5118 110.02 10.5118C137.178 10.5118 159.897 29.0267 166.042 53.9342C169.357 52.949 172.87 52.4058 176.516 52.4058C196.508 52.4058 212.715 68.3781 212.715 88.0809C212.715 107.143 197.533 122.662 178.445 123.658Z" fill="white"/></g></g><path d="M94.7969 60.1665C94.7969 54.3848 99.4839 49.6978 105.266 49.6978C109.015 49.6978 112.306 51.6686 114.156 54.6359C114.425 55.0669 114.964 55.2428 115.435 55.0531C117.305 54.3002 119.349 53.8853 121.492 53.8853C130.454 53.8853 137.719 61.1502 137.719 70.1119C137.719 75.5943 135.001 80.4421 130.834 83.3813C130.362 83.7145 130.249 84.3677 130.582 84.8402C130.915 85.3126 131.568 85.4255 132.041 85.0922C136.74 81.7776 139.812 76.3036 139.812 70.1119C139.812 59.9938 131.61 51.7915 121.492 51.7915C119.377 51.7915 117.344 52.1505 115.451 52.8113C113.17 49.6584 109.458 47.604 105.266 47.604C98.3275 47.604 92.7031 53.2285 92.7031 60.1665C92.7031 61.2559 92.842 62.314 93.1034 63.3235C86.4658 63.6601 81.1875 69.1485 81.1875 75.8697C81.1875 81.1978 84.5041 85.7487 89.1817 87.5754C89.7202 87.7857 90.3273 87.5196 90.5377 86.9811C90.748 86.4425 90.4819 85.8354 89.9433 85.6251C86.0421 84.1016 83.2812 80.3067 83.2812 75.8697C83.2812 70.0879 87.9683 65.4009 93.75 65.4009C93.9936 65.4009 94.2352 65.4092 94.4744 65.4256C94.8325 65.45 95.1782 65.2892 95.3903 64.9996C95.6024 64.71 95.6513 64.3319 95.5198 63.9978C95.0535 62.8126 94.7969 61.5208 94.7969 60.1665Z" fill="black"/><path fill-rule="evenodd" clip-rule="evenodd" d="M110.5 77.9634C112.813 77.9634 114.687 79.8382 114.687 82.1509C114.687 84.4636 112.813 86.3384 110.5 86.3384C108.187 86.3384 106.312 84.4636 106.312 82.1509C106.312 79.8382 108.187 77.9634 110.5 77.9634ZM110.5 80.0572C111.656 80.0572 112.594 80.9946 112.594 82.1509C112.594 83.3073 111.656 84.2447 110.5 84.2447C109.344 84.2447 108.406 83.3073 108.406 82.1509C108.406 80.9946 109.344 80.0572 110.5 80.0572Z" fill="black"/><path fill-rule="evenodd" clip-rule="evenodd" d="M109.907 68.7258C110.264 68.4801 110.736 68.4801 111.093 68.7258L127.843 80.2414C128.127 80.4367 128.297 80.7593 128.297 81.104V104.135H135.102C135.68 104.135 136.148 104.604 136.148 105.182C136.148 105.76 135.68 106.229 135.102 106.229H116.781C116.203 106.229 115.734 105.76 115.734 105.182V92.6197H105.266V105.182C105.266 105.76 104.797 106.229 104.219 106.229H86.4219C85.8437 106.229 85.375 105.76 85.375 105.182C85.375 104.604 85.8437 104.135 86.4219 104.135H92.7031V81.104C92.7031 80.7593 92.8728 80.4367 93.1569 80.2414L109.907 68.7258ZM94.7969 104.135H103.172V91.5728C103.172 90.9946 103.641 90.5259 104.219 90.5259H116.781C117.359 90.5259 117.828 90.9946 117.828 91.5728V104.135H126.203V81.6547L110.5 70.8588L94.7969 81.6547V104.135Z" fill="black"/><defs><filter id="filter0_d_72_12185" x="0" y="0.511795" width="230.715" height="141.147" filterUnits="userSpaceOnUse" color-interpolation-filters="sRGB"><feFlood flood-opacity="0" result="BackgroundImageFix"/><feColorMatrix in="SourceAlpha" type="matrix" values="0 0 0 0 0 0 0 0 0 0 0 0 0 0 0 0 0 0 127 0" result="hardAlpha"/><feMorphology radius="4" operator="dilate" in="SourceAlpha" result="effect1_dropShadow_72_12185"/><feOffset dx="4" dy="4"/><feGaussianBlur stdDeviation="5"/><feComposite in2="hardAlpha" operator="out"/><feColorMatrix type="matrix" values="0 0 0 0 0 0 0 0 0 0 0 0 0 0 0 0 0 0 0.1 0"/><feBlend mode="normal" in2="BackgroundImageFix" result="effect1_dropShadow_72_12185"/><feBlend mode="normal" in="SourceGraphic" in2="effect1_dropShadow_72_12185" result="shape"/></filter></defs></svg>