<svg width="231" height="142" fill="none" xmlns="http://www.w3.org/2000/svg"><g filter="url(#filter0_d_72_12206)"><mask id="mask0_72_12206" style="mask-type:luminance" maskUnits="userSpaceOnUse" x="10" y="10" width="203" height="114"><path d="M178.445 123.971L43.3325 123.913C24.6854 122.468 10 107.14 10 88.3936C10 68.6907 26.2069 52.7184 46.1991 52.7184C48.9406 52.7184 51.5976 53.0443 54.1628 53.6093C60.5353 29.0279 83.089 10.8244 110.02 10.8244C137.178 10.8244 159.897 29.3393 166.042 54.2468C169.357 53.2616 172.87 52.7184 176.516 52.7184C196.508 52.7184 212.715 68.6907 212.715 88.3936C212.715 107.455 197.533 122.975 178.445 123.971Z" fill="white"/></mask><g mask="url(#mask0_72_12206)"><path d="M178.445 123.971L43.3325 123.913C24.6854 122.468 10 107.14 10 88.3936C10 68.6907 26.2069 52.7184 46.1991 52.7184C48.9406 52.7184 51.5976 53.0443 54.1628 53.6093C60.5353 29.0279 83.089 10.8244 110.02 10.8244C137.178 10.8244 159.897 29.3393 166.042 54.2468C169.357 53.2616 172.87 52.7184 176.516 52.7184C196.508 52.7184 212.715 68.6907 212.715 88.3936C212.715 107.455 197.533 122.975 178.445 123.971Z" fill="white"/></g></g><path fill-rule="evenodd" clip-rule="evenodd" d="M137.625 48.8602C138.863 48.4226 139.75 47.2419 139.75 45.8541C139.75 44.0937 138.323 42.6666 136.562 42.6666C134.802 42.6666 133.375 44.0937 133.375 45.8541C133.375 47.2419 134.262 48.4226 135.5 48.8602V55.5989C135.5 55.8807 135.388 56.1509 135.189 56.3502L129.437 62.1022C129.021 61.9031 128.555 61.7916 128.062 61.7916C126.302 61.7916 124.875 63.2187 124.875 64.9791C124.875 66.7395 126.302 68.1666 128.062 68.1666C129.823 68.1666 131.25 66.7395 131.25 64.9791C131.25 64.487 131.138 64.0209 130.939 63.6048L136.691 57.8528C137.289 57.255 137.625 56.4442 137.625 55.5989V48.8602ZM137.625 45.8541C137.625 45.2673 137.149 44.7916 136.562 44.7916C135.976 44.7916 135.5 45.2673 135.5 45.8541C135.5 46.4409 135.976 46.9166 136.562 46.9166C137.149 46.9166 137.625 46.4409 137.625 45.8541ZM128.062 63.9166C128.649 63.9166 129.125 64.3923 129.125 64.9791C129.125 65.5659 128.649 66.0416 128.062 66.0416C127.476 66.0416 127 65.5659 127 64.9791C127 64.3923 127.476 63.9166 128.062 63.9166Z" fill="black"/><path fill-rule="evenodd" clip-rule="evenodd" d="M131.25 78.7916C131.25 80.1794 130.363 81.3601 129.125 81.7977V90.039L135.188 96.1022C135.604 95.9031 136.07 95.7916 136.562 95.7916C138.323 95.7916 139.75 97.2187 139.75 98.9791C139.75 100.739 138.323 102.167 136.562 102.167C134.802 102.167 133.375 100.739 133.375 98.9791C133.375 98.487 133.487 98.0209 133.686 97.6048L127.311 91.2304C127.112 91.0311 127 90.7609 127 90.4791V81.7977C125.762 81.3601 124.875 80.1794 124.875 78.7916C124.875 77.0312 126.302 75.6041 128.062 75.6041C129.823 75.6041 131.25 77.0312 131.25 78.7916ZM129.125 78.7916C129.125 78.2048 128.649 77.7291 128.062 77.7291C127.476 77.7291 127 78.2048 127 78.7916C127 79.3784 127.476 79.8541 128.062 79.8541C128.649 79.8541 129.125 79.3784 129.125 78.7916ZM136.562 97.9166C137.149 97.9166 137.625 98.3923 137.625 98.9791C137.625 99.5659 137.149 100.042 136.562 100.042C135.976 100.042 135.5 99.5659 135.5 98.9791C135.5 98.3923 135.976 97.9166 136.562 97.9166Z" fill="black"/><path fill-rule="evenodd" clip-rule="evenodd" d="M93 80.7352C94.238 80.2976 95.125 79.1169 95.125 77.7291C95.125 75.9687 93.6979 74.5416 91.9375 74.5416C90.1771 74.5416 88.75 75.9687 88.75 77.7291C88.75 79.1169 89.637 80.2976 90.875 80.7352V90.039L84.8118 96.1022C84.3956 95.9031 83.9296 95.7916 83.4375 95.7916C81.6771 95.7916 80.25 97.2187 80.25 98.9791C80.25 100.739 81.6771 102.167 83.4375 102.167C85.1979 102.167 86.625 100.739 86.625 98.9791C86.625 98.487 86.5135 98.0209 86.3144 97.6048L92.6888 91.2304C92.8881 91.0311 93 90.7609 93 90.4791V80.7352ZM91.9375 76.6666C91.3507 76.6666 90.875 77.1423 90.875 77.7291C90.875 78.3159 91.3507 78.7916 91.9375 78.7916C92.5243 78.7916 93 78.3159 93 77.7291C93 77.1423 92.5243 76.6666 91.9375 76.6666ZM82.375 98.9791C82.375 98.3923 82.8507 97.9166 83.4375 97.9166C84.0243 97.9166 84.5 98.3923 84.5 98.9791C84.5 99.5659 84.0243 100.042 83.4375 100.042C82.8507 100.042 82.375 99.5659 82.375 98.9791Z" fill="black"/><path fill-rule="evenodd" clip-rule="evenodd" d="M111.062 92.4227V95.9729C112.301 96.4105 113.188 97.5912 113.188 98.9791C113.188 100.739 111.76 102.167 110 102.167C108.24 102.167 106.812 100.739 106.812 98.9791C106.812 97.5912 107.699 96.4105 108.938 95.9729V92.4227C107.699 91.9851 106.812 90.8044 106.812 89.4166C106.812 87.6562 108.24 86.2291 110 86.2291C111.76 86.2291 113.188 87.6562 113.188 89.4166C113.188 90.8044 112.301 91.9851 111.062 92.4227ZM110 90.4791C110.587 90.4791 111.062 90.0034 111.062 89.4166C111.062 88.8298 110.587 88.3541 110 88.3541C109.413 88.3541 108.938 88.8298 108.938 89.4166C108.938 90.0034 109.413 90.4791 110 90.4791ZM110 97.9166C110.587 97.9166 111.062 98.3923 111.062 98.9791C111.062 99.5659 110.587 100.042 110 100.042C109.413 100.042 108.938 99.5659 108.938 98.9791C108.938 98.3923 109.413 97.9166 110 97.9166Z" fill="black"/><path fill-rule="evenodd" clip-rule="evenodd" d="M91.651 47.1769L94.8647 50.3906C95.2676 50.2066 95.7156 50.1041 96.1875 50.1041C97.9479 50.1041 99.375 51.5312 99.375 53.2916C99.375 55.052 97.9479 56.4791 96.1875 56.4791C94.4271 56.4791 93 55.052 93 53.2916C93 52.7794 93.1208 52.2954 93.3355 51.8666L90.1751 48.7062C88.9815 49.3028 87.4915 49.1034 86.4961 48.108C85.2513 46.8632 85.2513 44.845 86.4961 43.6002C87.7409 42.3554 89.7591 42.3554 91.0039 43.6002C91.9711 44.5674 92.1868 46.0015 91.651 47.1769ZM89.5013 45.1028C89.9162 45.5177 89.9162 46.1904 89.5013 46.6054C89.0864 47.0203 88.4136 47.0203 87.9987 46.6054C87.5838 46.1904 87.5838 45.5177 87.9987 45.1028C88.4136 44.6878 89.0864 44.6878 89.5013 45.1028ZM96.1875 52.2291C95.6007 52.2291 95.125 52.7048 95.125 53.2916C95.125 53.8784 95.6007 54.3541 96.1875 54.3541C96.7743 54.3541 97.25 53.8784 97.25 53.2916C97.25 52.7048 96.7743 52.2291 96.1875 52.2291Z" fill="black"/><path d="M115.061 70.9779C115.44 70.5299 115.384 69.8595 114.936 69.4805C114.488 69.1014 113.818 69.1573 113.439 69.6053L108.341 75.63L105.97 73.259C105.555 72.8441 104.882 72.8441 104.467 73.259C104.053 73.674 104.053 74.3467 104.467 74.7616L107.655 77.9491C107.865 78.1592 108.154 78.2718 108.45 78.2594C108.747 78.2471 109.025 78.111 109.217 77.8841L115.061 70.9779Z" fill="black"/><path fill-rule="evenodd" clip-rule="evenodd" d="M99.375 73.4791C99.375 67.611 104.132 62.8541 110 62.8541C115.868 62.8541 120.625 67.611 120.625 73.4791C120.625 79.3471 115.868 84.1041 110 84.1041C104.132 84.1041 99.375 79.3471 99.375 73.4791ZM110 64.9791C105.306 64.9791 101.5 68.7846 101.5 73.4791C101.5 78.1735 105.306 81.9791 110 81.9791C114.694 81.9791 118.5 78.1735 118.5 73.4791C118.5 68.7846 114.694 64.9791 110 64.9791Z" fill="black"/><path d="M101.307 51.7155C102.367 51.3597 103.504 51.1666 104.688 51.1666C108.493 51.1666 111.833 53.1668 113.711 56.1784C113.983 56.6158 114.531 56.7944 115.009 56.6018C116.907 55.8377 118.981 55.4166 121.156 55.4166C124.472 55.4166 127.556 56.3953 130.138 58.0793C130.63 58.3998 131.288 58.2611 131.609 57.7695C131.929 57.278 131.791 56.6197 131.299 56.2992C128.382 54.397 124.896 53.2916 121.156 53.2916C119.009 53.2916 116.946 53.6558 115.025 54.3266C112.71 51.1266 108.943 49.0416 104.688 49.0416C103.271 49.0416 101.907 49.2729 100.631 49.7008C100.075 49.8874 99.7748 50.4896 99.9614 51.046C100.148 51.6023 100.75 51.9021 101.307 51.7155Z" fill="black"/><path d="M94.6114 58.4107C94.798 57.8543 94.4983 57.252 93.9419 57.0655C93.3856 56.8789 92.7833 57.1786 92.5967 57.735C92.1689 59.0106 91.9375 60.3752 91.9375 61.7916C91.9375 62.8972 92.0785 63.9711 92.3437 64.9957C85.6071 65.3372 80.25 70.9075 80.25 77.7291C80.25 82.914 83.3449 87.3739 87.7836 89.3663C88.319 89.6066 88.9478 89.3675 89.1881 88.8321C89.4284 88.2968 89.1892 87.668 88.6539 87.4277C84.9507 85.7654 82.375 82.0469 82.375 77.7291C82.375 71.861 87.132 67.1041 93 67.1041C93.2473 67.1041 93.4924 67.1125 93.7352 67.1291C94.0987 67.1539 94.4495 66.9907 94.6648 66.6967C94.88 66.4028 94.9296 66.019 94.7962 65.68C94.323 64.4771 94.0625 63.166 94.0625 61.7916C94.0625 60.6078 94.2557 59.4713 94.6114 58.4107Z" fill="black"/><path d="M136.932 62.0396C136.621 61.5421 135.965 61.391 135.468 61.7021C134.97 62.0133 134.819 62.6688 135.13 63.1663C136.711 65.6942 137.625 68.6814 137.625 71.8853C137.625 77.4496 134.866 82.3698 130.638 85.3528C130.158 85.691 130.044 86.3539 130.382 86.8334C130.72 87.313 131.383 87.4275 131.862 87.0892C136.632 83.7252 139.75 78.1695 139.75 71.8853C139.75 68.2715 138.718 64.8955 136.932 62.0396Z" fill="black"/><path d="M124.536 90.1725C125.113 90.0665 125.495 89.5127 125.389 88.9355C125.283 88.3584 124.729 87.9765 124.152 88.0825C123.181 88.2608 122.18 88.3541 121.156 88.3541C120.989 88.3541 120.823 88.3516 120.657 88.3466C120.603 88.345 120.549 88.3476 120.496 88.3541H115.578C114.991 88.3541 114.516 88.8298 114.516 89.4166C114.516 90.0034 114.991 90.4791 115.578 90.4791H120.625C120.659 90.4791 120.694 90.4774 120.727 90.4742C120.87 90.4774 121.013 90.4791 121.156 90.4791C122.309 90.4791 123.439 90.374 124.536 90.1725Z" fill="black"/><path d="M96.1875 88.3541C95.6007 88.3541 95.125 88.8298 95.125 89.4166C95.125 90.0034 95.6007 90.4791 96.1875 90.4791H103.625C104.212 90.4791 104.688 90.0034 104.688 89.4166C104.688 88.8298 104.212 88.3541 103.625 88.3541H96.1875Z" fill="black"/><defs><filter id="filter0_d_72_12206" x="0" y="0.824402" width="230.715" height="141.147" filterUnits="userSpaceOnUse" color-interpolation-filters="sRGB"><feFlood flood-opacity="0" result="BackgroundImageFix"/><feColorMatrix in="SourceAlpha" type="matrix" values="0 0 0 0 0 0 0 0 0 0 0 0 0 0 0 0 0 0 127 0" result="hardAlpha"/><feMorphology radius="4" operator="dilate" in="SourceAlpha" result="effect1_dropShadow_72_12206"/><feOffset dx="4" dy="4"/><feGaussianBlur stdDeviation="5"/><feComposite in2="hardAlpha" operator="out"/><feColorMatrix type="matrix" values="0 0 0 0 0 0 0 0 0 0 0 0 0 0 0 0 0 0 0.1 0"/><feBlend mode="normal" in2="BackgroundImageFix" result="effect1_dropShadow_72_12206"/><feBlend mode="normal" in="SourceGraphic" in2="effect1_dropShadow_72_12206" result="shape"/></filter></defs></svg>