<svg width="150" height="97" fill="none" xmlns="http://www.w3.org/2000/svg"><g filter="url(#filter0_d_72_12199)"><mask id="mask0_72_12199" style="mask-type:luminance" maskUnits="userSpaceOnUse" x="10" y="10" width="122" height="69"><path d="M111.236 78.4481L30.0329 78.4133C18.826 77.5447 10 68.3328 10 57.066C10 45.2245 19.7404 35.6251 31.7558 35.6251C33.4034 35.6251 35.0003 35.821 36.542 36.1605C40.3719 21.387 53.9267 10.4467 70.1121 10.4467C86.4344 10.4467 100.089 21.5742 103.782 36.5437C105.774 35.9516 107.885 35.6251 110.076 35.6251C122.092 35.6251 131.832 45.2245 131.832 57.066C131.832 68.5222 122.708 77.8495 111.236 78.4481Z" fill="white"/></mask><g mask="url(#mask0_72_12199)"><path d="M111.236 78.4481L30.0329 78.4133C18.826 77.5447 10 68.3328 10 57.066C10 45.2245 19.7404 35.6251 31.7558 35.6251C33.4034 35.6251 35.0003 35.821 36.542 36.1605C40.3719 21.387 53.9267 10.4467 70.1121 10.4467C86.4344 10.4467 100.089 21.5742 103.782 36.5437C105.774 35.9516 107.885 35.6251 110.076 35.6251C122.092 35.6251 131.832 45.2245 131.832 57.066C131.832 68.5222 122.708 77.8495 111.236 78.4481Z" fill="white"/><path d="M59.2812 35.9166C59.2812 31.6018 62.779 28.1041 67.0938 28.1041C69.8921 28.1041 72.3476 29.5748 73.7284 31.7892C73.929 32.1109 74.3315 32.2422 74.6831 32.1006C76.0787 31.5387 77.6038 31.2291 79.2031 31.2291C85.8909 31.2291 91.3125 36.6506 91.3125 43.3384C91.3125 48.0431 88.6297 52.1225 84.7069 54.1279C84.3227 54.3243 84.1705 54.7949 84.3669 55.1791C84.5633 55.5633 85.0339 55.7155 85.4181 55.5191C89.843 53.2572 92.875 48.6526 92.875 43.3384C92.875 35.7877 86.7539 29.6666 79.2031 29.6666C77.6246 29.6666 76.1071 29.9344 74.6946 30.4276C72.9926 28.0747 70.2225 26.5416 67.0938 26.5416C61.9161 26.5416 57.7188 30.7389 57.7188 35.9166C57.7188 36.7295 57.8224 37.5192 58.0175 38.2725C53.064 38.5237 49.125 42.6195 49.125 47.6353C49.125 52.2317 52.432 56.0541 56.7964 56.8558C57.2207 56.9337 57.6279 56.6529 57.7059 56.2285C57.7838 55.8041 57.503 55.3969 57.0786 55.319C53.4426 54.6511 50.6875 51.4641 50.6875 47.6353C50.6875 43.3206 54.1853 39.8228 58.5 39.8228C58.6818 39.8228 58.8621 39.829 59.0406 39.8412C59.3078 39.8594 59.5658 39.7395 59.7241 39.5233C59.8824 39.3072 59.9188 39.025 59.8208 38.7757C59.4728 37.8913 59.2812 36.9272 59.2812 35.9166Z" fill="black"/><path fill-rule="evenodd" clip-rule="evenodd" d="M71 42.1666C67.9351 42.1666 65.134 42.4764 63.0765 42.9908C62.0538 43.2465 61.1707 43.5633 60.5245 43.9453C59.9306 44.2963 59.2812 44.8579 59.2812 45.6822C59.2812 45.7605 59.2871 45.8364 59.2982 45.9101C59.2871 45.9626 59.2812 46.017 59.2812 46.0728V64.6716C59.2812 65.0917 59.4713 65.4376 59.7032 65.6961C59.9308 65.9499 60.2302 66.1573 60.5512 66.3304C61.1941 66.6771 62.0728 66.9649 63.0923 67.1975C65.1437 67.6654 67.9391 67.9478 71 67.9478C74.0609 67.9478 76.8563 67.6654 78.9077 67.1975C79.9272 66.9649 80.8059 66.6771 81.4488 66.3304C81.7698 66.1573 82.0692 65.9499 82.2968 65.6961C82.5287 65.4376 82.7188 65.0917 82.7188 64.6716V46.0728C82.7188 46.017 82.7129 45.9626 82.7018 45.9101C82.7129 45.8364 82.7188 45.7605 82.7188 45.6822C82.7188 44.8579 82.0694 44.2963 81.4755 43.9453C80.8293 43.5633 79.9462 43.2465 78.9235 42.9908C76.866 42.4764 74.0649 42.1666 71 42.1666ZM61.3195 46.074C60.9691 45.8669 60.8754 45.7276 60.8512 45.6822C60.8754 45.6368 60.9691 45.4975 61.3195 45.2904C61.7803 45.0181 62.4989 44.7458 63.4555 44.5066C65.3566 44.0313 68.0243 43.7291 71 43.7291C73.9757 43.7291 76.6434 44.0313 78.5445 44.5066C79.5011 44.7458 80.2197 45.0181 80.6805 45.2904C81.0309 45.4975 81.1246 45.6368 81.1488 45.6822C81.1246 45.7276 81.0309 45.8669 80.6805 46.074C80.2197 46.3463 79.5011 46.6186 78.5445 46.8578C76.6434 47.333 73.9757 47.6353 71 47.6353C68.0243 47.6353 65.3566 47.333 63.4555 46.8578C62.4989 46.6186 61.7803 46.3463 61.3195 46.074ZM60.8438 59.9381V57.1017C61.4505 57.384 62.2198 57.6235 63.0923 57.8225C65.1437 58.2904 67.9391 58.5728 71 58.5728C74.0609 58.5728 76.8563 58.2904 78.9077 57.8225C79.7802 57.6235 80.5495 57.384 81.1562 57.1017V59.9381C81.1511 59.945 81.1438 59.9541 81.1337 59.9652C81.07 60.0363 80.9397 60.1422 80.7071 60.2676C80.2431 60.5179 79.5201 60.7677 78.5602 60.9866C76.6531 61.4217 73.9797 61.6978 71 61.6978C68.0203 61.6978 65.3469 61.4217 63.4398 60.9866C62.4799 60.7677 61.7569 60.5179 61.2929 60.2676C61.0603 60.1422 60.93 60.0363 60.8663 59.9652C60.8562 59.9541 60.8489 59.945 60.8438 59.9381ZM78.9077 62.51C79.7802 62.311 80.5495 62.0715 81.1562 61.7892V64.6256C81.1511 64.6325 81.1438 64.6416 81.1337 64.6527C81.07 64.7238 80.9397 64.8297 80.7071 64.9551C80.2431 65.2054 79.5201 65.4552 78.5602 65.6741C76.6531 66.1092 73.9797 66.3853 71 66.3853C68.0203 66.3853 65.3469 66.1092 63.4398 65.6741C62.4799 65.4552 61.7569 65.2054 61.2929 64.9551C61.0603 64.8297 60.93 64.7238 60.8663 64.6527C60.8562 64.6416 60.8489 64.6325 60.8438 64.6256V61.7892C61.4505 62.0715 62.2198 62.311 63.0923 62.51C65.1437 62.9779 67.9391 63.2603 71 63.2603C74.0609 63.2603 76.8563 62.9779 78.9077 62.51ZM81.1562 52.4142C80.5495 52.6965 79.7802 52.936 78.9077 53.135C76.8563 53.6029 74.0609 53.8853 71 53.8853C67.9391 53.8853 65.1437 53.6029 63.0923 53.135C62.2198 52.936 61.4505 52.6965 60.8438 52.4142V55.2506C60.8489 55.2575 60.8562 55.2666 60.8663 55.2777C60.93 55.3488 61.0603 55.4547 61.2929 55.5801C61.7569 55.8304 62.4799 56.0802 63.4398 56.2991C65.3469 56.7342 68.0203 57.0103 71 57.0103C73.9797 57.0103 76.6531 56.7342 78.5602 56.2991C79.5201 56.0802 80.2431 55.8304 80.7071 55.5801C80.9397 55.4547 81.07 55.3488 81.1337 55.2777C81.1438 55.2666 81.1511 55.2575 81.1562 55.2506V52.4142ZM60.8438 50.5631V47.5931C61.4495 47.8984 62.2133 48.1578 63.0765 48.3736C65.134 48.888 67.9351 49.1978 71 49.1978C74.0649 49.1978 76.866 48.888 78.9235 48.3736C79.7867 48.1578 80.5505 47.8984 81.1562 47.5931V50.5631L81.1496 50.5716L81.1458 50.5763L81.1405 50.5825L81.1337 50.5902C81.07 50.6613 80.9397 50.7672 80.7071 50.8926C80.2431 51.1429 79.5201 51.3927 78.5602 51.6116C76.6531 52.0467 73.9797 52.3228 71 52.3228C68.0203 52.3228 65.3469 52.0467 63.4398 51.6116C62.4799 51.3927 61.7569 51.1429 61.2929 50.8926C61.0603 50.7672 60.93 50.6613 60.8663 50.5902C60.8562 50.5791 60.8489 50.57 60.8438 50.5631Z" fill="black"/></g></g><defs><filter id="filter0_d_72_12199" x="0" y="0.446655" width="149.832" height="96.0015" filterUnits="userSpaceOnUse" color-interpolation-filters="sRGB"><feFlood flood-opacity="0" result="BackgroundImageFix"/><feColorMatrix in="SourceAlpha" type="matrix" values="0 0 0 0 0 0 0 0 0 0 0 0 0 0 0 0 0 0 127 0" result="hardAlpha"/><feMorphology radius="4" operator="dilate" in="SourceAlpha" result="effect1_dropShadow_72_12199"/><feOffset dx="4" dy="4"/><feGaussianBlur stdDeviation="5"/><feComposite in2="hardAlpha" operator="out"/><feColorMatrix type="matrix" values="0 0 0 0 0 0 0 0 0 0 0 0 0 0 0 0 0 0 0.1 0"/><feBlend mode="normal" in2="BackgroundImageFix" result="effect1_dropShadow_72_12199"/><feBlend mode="normal" in="SourceGraphic" in2="effect1_dropShadow_72_12199" result="shape"/></filter></defs></svg>