<svg width="169" height="108" fill="none" xmlns="http://www.w3.org/2000/svg"><g filter="url(#filter0_d_72_12192)"><mask id="mask0_72_12192" style="mask-type:luminance" maskUnits="userSpaceOnUse" x="10" y="10" width="141" height="80"><path d="M126.951 89.4612L33.1426 89.4209C20.196 88.4175 10 77.7757 10 64.7599C10 51.0803 21.2524 39.9908 35.1328 39.9908C37.0363 39.9908 38.8811 40.2171 40.6621 40.6094C45.0865 23.5426 60.7454 10.904 79.4432 10.904C98.2992 10.904 114.073 23.7588 118.339 41.0519C120.641 40.368 123.08 39.9908 125.611 39.9908C139.492 39.9908 150.744 51.0803 150.744 64.7599C150.744 77.9944 140.203 88.7696 126.951 89.4612Z" fill="white"/></mask><g mask="url(#mask0_72_12192)"><path d="M126.951 89.4612L33.1426 89.4209C20.196 88.4175 10 77.7757 10 64.7599C10 51.0803 21.2524 39.9908 35.1328 39.9908C37.0363 39.9908 38.8811 40.2171 40.6621 40.6094C45.0865 23.5426 60.7454 10.904 79.4432 10.904C98.2992 10.904 114.073 23.7588 118.339 41.0519C120.641 40.368 123.08 39.9908 125.611 39.9908C139.492 39.9908 150.744 51.0803 150.744 64.7599C150.744 77.9944 140.203 88.7696 126.951 89.4612Z" fill="white"/></g></g><path d="M86.7343 47.1206C87.0239 46.8448 87.035 46.3865 86.7592 46.0969C86.4834 45.8073 86.0251 45.7961 85.7355 46.0719L80.1563 51.3854L78.4111 49.6965C78.1237 49.4184 77.6653 49.4259 77.3872 49.7133C77.1091 50.0007 77.1166 50.4591 77.404 50.7372L79.6487 52.9096C79.9279 53.1797 80.3704 53.1815 80.6517 52.9136L86.7343 47.1206Z" fill="black"/><path fill-rule="evenodd" clip-rule="evenodd" d="M70.9442 40.9135C71.9563 40.2846 75.1254 38.631 80.4419 38.631C85.7585 38.631 88.9276 40.2846 89.9396 40.9135C90.3684 41.18 90.5796 41.639 90.5796 42.0875V53.7629C90.5796 55.1571 90.2586 56.3079 89.6925 57.2853C89.1306 58.2557 88.3484 59.0185 87.4781 59.6711C86.613 60.3199 85.6321 60.88 84.6637 61.4256L84.4845 61.5265C83.5637 62.0447 82.6524 62.5576 81.7899 63.1512C80.9812 63.7078 79.9027 63.7078 79.094 63.1512C78.2315 62.5576 77.3202 62.0447 76.3995 61.5265L76.2202 61.4256C75.2517 60.88 74.2709 60.3199 73.4058 59.6711C72.5355 59.0185 71.7533 58.2557 71.1913 57.2853C70.6253 56.3079 70.3043 55.1571 70.3043 53.7629V42.0875C70.3043 41.639 70.5155 41.18 70.9442 40.9135ZM71.7525 42.1166V53.7629C71.7525 54.9215 72.0156 55.8188 72.4446 56.5595C72.8776 57.3073 73.5013 57.9325 74.2746 58.5125C75.0531 59.0962 75.9536 59.6132 76.931 60.1638L77.1221 60.2714C77.9665 60.7465 78.8593 61.2488 79.7181 61.8245C79.7179 61.8173 79.7178 61.81 79.7178 61.8027V57.4182C76.4593 57.058 73.9249 54.2955 73.9249 50.941C73.9249 47.5865 76.4593 44.8239 79.7178 44.4637V40.0902C75.2405 40.2272 72.588 41.6062 71.7525 42.1166ZM81.1661 57.4182C84.4245 57.058 86.959 54.2955 86.959 50.941C86.959 50.6657 86.9419 50.3941 86.9086 50.1273C86.8591 49.7304 86.4973 49.4488 86.1004 49.4983C85.7036 49.5478 85.422 49.9096 85.4715 50.3065C85.4974 50.514 85.5107 50.7258 85.5107 50.941C85.5107 53.7404 83.2414 56.0098 80.4419 56.0098C77.6425 56.0098 75.3731 53.7404 75.3731 50.941C75.3731 48.1415 77.6425 45.8722 80.4419 45.8722C81.3664 45.8722 82.231 46.119 82.9758 46.5498C83.322 46.7501 83.765 46.6318 83.9652 46.2856C84.1654 45.9394 84.0472 45.4965 83.701 45.2962C82.9396 44.8558 82.0809 44.565 81.1661 44.4638V40.0902C85.6434 40.2272 88.2959 41.6062 89.1313 42.1166V53.7629C89.1313 54.9215 88.8683 55.8188 88.4393 56.5595C88.0063 57.3073 87.3826 57.9325 86.6092 58.5125C85.8308 59.0962 84.9303 59.6132 83.9529 60.1638L83.7618 60.2714C82.9173 60.7465 82.0246 61.2488 81.1657 61.8245C81.1659 61.8173 81.1661 61.81 81.1661 61.8027V57.4182Z" fill="black"/><path fill-rule="evenodd" clip-rule="evenodd" d="M64.5114 45.148C64.1115 45.148 63.7873 45.4722 63.7873 45.8722V67.5956H97.0966V45.8722C97.0966 45.4722 96.7724 45.148 96.3725 45.148H92.7519C92.352 45.148 92.0278 44.8238 92.0278 44.4239C92.0278 44.024 92.352 43.6998 92.7519 43.6998H96.3725C97.5722 43.6998 98.5448 44.6724 98.5448 45.8722V68.3142L100.353 71.0296C101.01 72.0168 100.999 73.3048 100.325 74.2806L99.305 75.7584C98.7642 76.5416 97.8732 77.0092 96.9215 77.0092H63.9624C63.0106 77.0092 62.1196 76.5416 61.5789 75.7584L60.5585 74.2806C59.8847 73.3048 59.8738 72.0168 60.531 71.0296L62.339 68.3142V45.8722C62.339 44.6724 63.3116 43.6998 64.5114 43.6998H67.4078C67.8078 43.6998 68.132 44.024 68.132 44.4239C68.132 44.8238 67.8078 45.148 67.4078 45.148H64.5114ZM61.7365 71.8323L63.5931 69.0439H97.2908L99.1474 71.8323C99.2456 71.9799 99.314 72.1409 99.3526 72.3072C99.3252 72.304 99.2972 72.3024 99.269 72.3024H61.977C61.7953 72.3024 61.6292 72.3693 61.5021 72.4799C61.5265 72.253 61.6045 72.0305 61.7365 71.8323ZM61.9522 73.7502L62.7706 74.9356C63.041 75.3271 63.4865 75.5609 63.9624 75.5609H96.9215C97.3974 75.5609 97.8429 75.3271 98.1132 74.9356L98.9314 73.7506H61.977C61.9687 73.7506 61.9604 73.7505 61.9522 73.7502Z" fill="black"/><defs><filter id="filter0_d_72_12192" x="0" y="0.903992" width="168.744" height="106.557" filterUnits="userSpaceOnUse" color-interpolation-filters="sRGB"><feFlood flood-opacity="0" result="BackgroundImageFix"/><feColorMatrix in="SourceAlpha" type="matrix" values="0 0 0 0 0 0 0 0 0 0 0 0 0 0 0 0 0 0 127 0" result="hardAlpha"/><feMorphology radius="4" operator="dilate" in="SourceAlpha" result="effect1_dropShadow_72_12192"/><feOffset dx="4" dy="4"/><feGaussianBlur stdDeviation="5"/><feComposite in2="hardAlpha" operator="out"/><feColorMatrix type="matrix" values="0 0 0 0 0 0 0 0 0 0 0 0 0 0 0 0 0 0 0.1 0"/><feBlend mode="normal" in2="BackgroundImageFix" result="effect1_dropShadow_72_12192"/><feBlend mode="normal" in="SourceGraphic" in2="effect1_dropShadow_72_12192" result="shape"/></filter></defs></svg>