<svg width="135" height="101" fill="none" xmlns="http://www.w3.org/2000/svg"><path d="M67.7967 59.7598C78.9083 59.7598 87.9161 50.7521 87.9161 39.6404C87.9161 28.5288 78.9083 19.521 67.7967 19.521C56.685 19.521 47.6772 28.5288 47.6772 39.6404C47.6772 50.7521 56.685 59.7598 67.7967 59.7598Z" stroke="#919191" stroke-width="5.02986" stroke-miterlimit="10"/><path d="M132.246 74.3784C131.916 65.7077 128.238 57.5025 121.985 51.4869C115.732 45.4714 107.39 42.114 98.7134 42.1202C102.178 42.1237 105.582 41.2109 108.581 39.4745C111.579 37.7381 114.065 35.2397 115.786 32.2328C117.508 29.2258 118.403 25.8172 118.383 22.3524C118.362 18.8877 117.425 15.49 115.668 12.5039C113.911 9.51786 111.395 7.04952 108.376 5.34918C105.357 3.64885 101.942 2.77698 98.4778 2.82197C95.0133 2.86696 91.6222 3.82721 88.6485 5.60537C85.6748 7.38353 83.2241 9.91636 81.5449 12.9471" stroke="#E8C457" stroke-width="5.02986" stroke-miterlimit="10"/><path d="M3.28046 74.3783C3.61018 65.7077 7.28808 57.5024 13.5412 51.4869C19.7944 45.4713 28.1359 42.1139 36.8128 42.1202C33.3509 42.1118 29.9526 41.1889 26.9619 39.445C23.9713 37.7011 21.4945 35.198 19.7822 32.1891C18.0699 29.1802 17.183 25.7724 17.2111 22.3105C17.2392 18.8487 18.1815 15.4557 19.9425 12.4751C21.7034 9.49444 24.2206 7.03195 27.2392 5.33687C30.2578 3.64179 33.6707 2.77429 37.1323 2.82219C40.5939 2.8701 43.9815 3.83169 46.952 5.60965C49.9226 7.38761 52.3706 9.91881 54.0485 12.947" stroke="#E8C457" stroke-width="5.02986" stroke-miterlimit="10"/><path d="M106.292 100.129C106.292 99.593 106.292 98.9894 106.292 98.4528C106.292 88.2255 102.229 78.4171 94.9972 71.1852C87.7654 63.9534 77.9569 59.8906 67.7296 59.8906C57.5022 59.8906 47.6938 63.9534 40.462 71.1852C33.2302 78.4171 29.1674 88.2255 29.1674 98.4528C29.1674 98.9894 29.1674 99.593 29.1674 100.129" stroke="#919191" stroke-width="5.02986" stroke-miterlimit="10"/></svg>