<svg width="659" height="640" fill="none" xmlns="http://www.w3.org/2000/svg"><ellipse cx="334.12" cy="314.914" rx="157.216" ry="156.632" fill="#FAF2DD"/><path d="M457.292 428.498C425.03 460.027 382.13 477.394 336.501 477.394C290.872 477.394 247.971 460.027 215.708 428.498C183.442 396.964 165.673 355.038 165.673 310.445C165.673 265.852 183.442 223.926 215.708 192.397C216.467 191.656 217.26 190.962 218.031 190.237C217.425 192.046 216.763 193.823 215.694 195.387C213.156 199.082 208.916 200.567 206.256 204.037C203.835 207.198 201.889 211.986 200.987 215.537C200.01 219.377 200.604 224.047 199.22 227.879C197.462 232.744 194.27 235.641 194.863 241.281C201.803 243.297 198.793 231.243 204.641 230.623C206.495 235.122 205.276 243.488 204.75 248.392C204.024 255.136 202.679 256.808 206.799 262.597C210.063 267.182 211.144 270.25 217.458 270.975C223.25 271.641 225.652 274.203 228.063 279.656C232.525 280.584 235.23 281.305 235.808 286.139C237.742 287.192 241.387 290.599 243.431 291.125C246.391 291.885 251.34 287.761 254.132 290.938C258.797 296.244 248.222 310.102 246.332 314.885C243.565 321.887 243.156 332.17 249.945 337.199C253.431 339.78 257.138 341.016 258.271 345.698C259.319 350.029 258.504 353.635 260.468 357.728C263.53 364.109 270.538 366.226 275.53 371.107C282.073 377.512 281.626 385.827 281.626 394.894C281.626 404.391 285.317 411.61 286.601 420.304C287.927 429.27 290.624 437.581 292.551 446.251C294.005 452.773 299.76 462.631 308.096 461.306C308.675 458.215 305.397 455.794 304.986 452.738C304.612 449.954 305.411 447.062 304.844 444.087C303.72 438.193 303.778 434.735 307.775 429.613C309.186 427.804 311.131 426.307 312.591 424.494C315.416 420.978 313.252 422.019 313.13 418.167C312.979 413.361 314.476 415.719 317.442 414.218C318.981 413.443 320.688 411.092 321.868 409.895C324.461 407.264 328.451 404.11 330.452 400.987C332.703 397.471 332.423 392.575 334.731 388.949C337.38 384.786 341.131 384.782 344.834 382.069C349.633 378.553 347.656 374.849 348.528 370.027C349.991 361.961 353.728 353.069 358.932 346.645C365.479 338.56 368.293 331.691 360.325 323.926C356.39 320.09 354.339 321.111 349.114 319.778C345.131 318.756 341.545 315.915 337.493 315.427C335.066 315.135 333.631 315.993 331.412 315.423C329.346 314.897 329.596 313.661 327.417 313.685C324.165 313.724 319.621 320.343 316.878 316.113C315.349 313.755 319.989 307.237 319.779 304.075C319.519 300.197 318.041 293.87 314.152 291.749C312.68 290.946 309.411 290.829 307.608 290.155C305.487 289.351 303.41 288.073 301.511 286.88C299.035 285.328 294.245 282.619 293.147 279.844C290.102 279.723 288.042 278.085 284.946 278.124C282.17 278.159 280.326 279.415 277.324 279.083C274.694 278.799 271.861 276.768 269.027 277.15C267.134 277.407 264.333 279.805 262.696 280.709C258.374 283.091 253.772 284.822 248.989 285.691C241.586 287.048 240.255 284.284 240.693 277.582L239.585 275.423C242.337 267.95 237.381 267.423 231.922 265.611C231.168 260.29 237.867 256.489 235.065 250.653C229.398 250.368 223.222 265.95 218.429 259.202C215.267 254.75 220.072 242.303 222.855 238.529C225.66 234.728 235.858 227.871 240.663 227.279C244.403 226.826 247.674 228.429 249.112 231.633C250.679 235.126 248.634 238.416 249.085 242.377C253.864 241.297 252.628 235.356 252.418 232.171C252.071 226.854 254.922 227.255 257.7 223.419C260.228 219.926 260.619 215.938 263.773 212.563C266.228 209.931 269.112 207.16 271.806 204.739C274.879 201.971 278.346 202.224 281.501 200.185C286.296 197.086 279.954 191.332 287.018 191.765C289.532 191.917 288.285 193.449 291.612 192.708C293.024 192.397 295.634 191.122 297.112 190.533C303.854 187.855 299.074 187.142 295.981 183.653C292.048 179.22 297.616 179.996 301.674 179.329C304.654 178.838 304.026 177.891 306.642 179.602C308.948 181.111 307.592 183.119 310.944 183.006C317.329 182.795 312.906 176.542 311.483 174.464C309.049 170.913 308.426 168.438 303.284 168.301C303.772 166.707 303.837 164.598 303.118 163.058C298.787 163.615 298.041 160.54 294.762 159.331C289.245 157.288 290.13 161.705 287.874 164.715C285.546 167.822 281.109 167.284 279.401 171.073C277.626 175.014 279.318 178.031 272.832 176.952C273.714 174.577 273.41 171.541 273.246 169.007C271.361 168.769 269.639 168.301 267.894 167.748C267.901 161.413 275.086 160.879 279.967 160.274C285.435 159.6 287.223 154.166 292.107 153.246C296.665 152.392 299.929 159.604 305.55 155.425C308.756 153.039 307.274 151.64 306.101 149.34C305.786 148.728 304.171 147.344 303.741 146.771L303.633 146.58C307.988 145.757 312.396 145.122 316.837 144.631C317.671 147.001 319.481 149.866 320.471 151.507C321.193 152.708 322.562 153.519 323.14 154.84C323.799 156.345 322.247 158.216 324.193 159.234C327.199 160.801 335.948 150.579 338.048 148.923C340.714 146.814 342.38 145.66 341.745 143.625C355.808 144.034 369.572 146.1 382.817 149.726C383.87 151.016 384.952 152.345 386.035 153.815C388.365 156.977 389.838 159.826 394.04 161.234C396.473 162.044 404.243 161.9 401.013 167.327C398.029 172.336 394.73 165.771 393.229 164.196C391.144 162.009 384.983 159.581 385.176 164.598C385.464 172.063 402.671 170.862 398.978 179.06C401.038 180.249 405.108 182.222 404.439 185.157C403.615 188.783 398.783 186.471 398.878 191.106C399.014 197.671 406.345 203.074 413.153 200.712C420.412 198.193 414.946 188.346 423.262 187.333C426.542 186.931 428.472 187.871 431.408 190.143C433.801 191.995 435.341 196.197 438.64 195.87C438.983 193.87 437.439 192.44 437.176 190.599C439.729 191.223 444.862 194.338 446.326 196.509C448.544 199.796 448.309 204.532 453.726 200.295C452.916 199.64 452.509 198.189 452.066 197.671C458.995 197.694 463.834 200.478 466.813 206.356C473.459 219.482 457.136 209.07 456.326 215.903C452.31 214.656 450.523 211.494 447.032 209.604C445.377 208.707 442.318 209.187 441.049 208.278C439.302 207.027 439.733 204.754 438.197 203.522C432.162 198.685 418.397 206.497 412.847 209.619C411.344 210.465 409.742 210.555 408.717 212.145C406.954 214.874 409.428 215.572 408.875 218.118C408.09 221.751 403.238 223.423 401.772 226.335C398.25 233.325 405.402 243.332 404.439 251.093C403.905 255.401 399.15 260.075 400.976 263.677C401.761 265.229 404.502 266.55 405.549 268.383C406.502 270.043 406.909 272.222 408.163 273.945C412.232 279.532 418.081 285.746 422.847 290.965C425.557 293.928 429.242 294.758 433.327 293.936C436.697 293.258 441.819 292.154 444.942 290.689C449.119 288.739 449.673 285.983 454.061 287.843C457.551 289.328 460.626 293.675 464.703 290.073C468.066 293.285 464.336 298.875 463.586 302.454C462.625 307.038 464.48 311.014 467.364 314.913C470.822 319.587 471.636 320.409 470.926 326.658C470.375 331.527 469.111 335.979 468.038 340.805C467.017 345.417 464.009 348.922 464.165 353.81C464.316 358.317 466.311 361.946 465.704 366.784C465.17 371.045 464.903 376.124 463.766 380.299C462.597 384.572 459.51 388.361 458.205 392.735C456.973 396.898 457.32 402.286 460.299 405.708C463.399 409.271 466.478 407.233 470.12 404.535C477.292 399.21 480.559 390.177 485.326 383.001C490.192 375.668 495.098 368.978 498.341 361.381C499.027 359.767 499.861 358.18 500.707 356.59C492.833 383.496 478.098 408.164 457.292 428.498ZM336.501 135.021C237.368 135.021 157 213.564 157 310.445C157 407.33 237.368 485.869 336.501 485.869C435.636 485.869 516 407.33 516 310.445C516 213.564 435.636 135.021 336.501 135.021Z" stroke="black" stroke-width="2"/><path d="M351.373 78.3748L351.097 81.9708C417.157 86.9063 474.904 117.748 514.921 163.645C554.93 209.548 577.166 270.456 572.162 335.563C567.154 400.668 535.86 457.579 489.289 497.017C442.711 536.447 380.909 558.361 314.848 553.427C248.785 548.494 191.039 517.653 151.022 471.756C111.012 425.852 88.7767 364.944 93.7801 299.839C98.7883 234.732 130.082 177.822 176.654 138.384C223.231 98.9532 285.034 77.0396 351.097 81.9708L351.373 78.3748L351.65 74.7787C215.515 64.6148 96.8003 165.13 86.4825 299.294C76.1695 433.456 178.161 550.453 314.295 560.622C450.427 570.785 569.142 470.27 579.46 336.108C589.773 201.944 487.782 84.947 351.65 74.7787L351.373 78.3748Z" fill="#E2E2E2"/><path d="M530.064 543.817L529.741 543.436L530.064 543.817C471.336 593.531 393.37 621.168 310.071 614.948C209.66 607.449 124.493 552.426 75.3743 473.975L74.6704 474.402C123.916 553.058 209.324 608.234 310.009 615.75C477.075 628.227 622.753 504.892 635.409 340.288C648.065 175.681 522.908 32.1189 355.842 19.6429C255.157 12.1239 162.288 53.9861 101.579 124.429L102.209 124.956C162.762 54.6945 255.369 12.9473 355.78 20.4458C439.08 26.6664 511.929 65.5658 562.386 123.434L562.008 123.763L562.386 123.434C612.839 181.304 640.891 258.136 634.579 340.226C628.268 422.313 588.79 494.1 530.064 543.817Z" fill="#E2E2E2" stroke="#DFDFDF"/><g filter="url(#filter0_d_72_12170)"><mask id="mask0_72_12170" style="mask-type:luminance" maskUnits="userSpaceOnUse" x="54" y="27" width="203" height="114"><path d="M222.445 140.147L87.3325 140.089C68.6854 138.643 54 123.316 54 104.569C54 84.8663 70.2069 68.894 90.1991 68.894C92.9406 68.894 95.5976 69.2199 98.1628 69.7849C104.535 45.2035 127.089 27 154.02 27C181.178 27 203.897 45.5149 210.042 70.4224C213.357 69.4372 216.87 68.894 220.516 68.894C240.508 68.894 256.715 84.8663 256.715 104.569C256.715 123.631 241.533 139.151 222.445 140.147Z" fill="white"/></mask><g mask="url(#mask0_72_12170)"><path d="M222.445 140.147L87.3325 140.089C68.6854 138.643 54 123.316 54 104.569C54 84.8663 70.2069 68.894 90.1991 68.894C92.9406 68.894 95.5976 69.2199 98.1628 69.7849C104.535 45.2035 127.089 27 154.02 27C181.178 27 203.897 45.5149 210.042 70.4224C213.357 69.4372 216.87 68.894 220.516 68.894C240.508 68.894 256.715 84.8663 256.715 104.569C256.715 123.631 241.533 139.151 222.445 140.147Z" fill="white"/></g></g><path d="M138.797 76.6547C138.797 70.873 143.484 66.186 149.266 66.186C153.015 66.186 156.306 68.1568 158.156 71.1241C158.425 71.5551 158.964 71.731 159.435 71.5413C161.305 70.7884 163.349 70.3735 165.492 70.3735C174.454 70.3735 181.719 77.6384 181.719 86.6C181.719 92.0825 179.001 96.9303 174.834 99.8695C174.362 100.203 174.249 100.856 174.582 101.328C174.915 101.801 175.568 101.914 176.041 101.58C180.74 98.2658 183.812 92.7918 183.812 86.6C183.812 76.482 175.61 68.2797 165.492 68.2797C163.377 68.2797 161.344 68.6386 159.451 69.2995C157.17 66.1466 153.458 64.0922 149.266 64.0922C142.328 64.0922 136.703 69.7167 136.703 76.6547C136.703 77.7441 136.842 78.8022 137.103 79.8117C130.466 80.1483 125.188 85.6367 125.188 92.3579C125.188 97.686 128.504 102.237 133.182 104.064C133.72 104.274 134.327 104.008 134.538 103.469C134.748 102.931 134.482 102.324 133.943 102.113C130.042 100.59 127.281 96.7949 127.281 92.3579C127.281 86.5761 131.968 81.8891 137.75 81.8891C137.994 81.8891 138.235 81.8974 138.474 81.9137C138.833 81.9382 139.178 81.7774 139.39 81.4878C139.602 81.1981 139.651 80.82 139.52 80.486C139.053 79.3008 138.797 78.009 138.797 76.6547Z" fill="black"/><path fill-rule="evenodd" clip-rule="evenodd" d="M154.5 94.4516C156.813 94.4516 158.687 96.3264 158.687 98.6391C158.687 100.952 156.813 102.827 154.5 102.827C152.187 102.827 150.312 100.952 150.312 98.6391C150.312 96.3264 152.187 94.4516 154.5 94.4516ZM154.5 96.5454C155.656 96.5454 156.594 97.4828 156.594 98.6391C156.594 99.7955 155.656 100.733 154.5 100.733C153.344 100.733 152.406 99.7955 152.406 98.6391C152.406 97.4828 153.344 96.5454 154.5 96.5454Z" fill="black"/><path fill-rule="evenodd" clip-rule="evenodd" d="M153.907 85.2139C154.264 84.9683 154.736 84.9683 155.093 85.2139L171.843 96.7296C172.127 96.9249 172.297 97.2475 172.297 97.5922V120.623H179.102C179.68 120.623 180.148 121.092 180.148 121.67C180.148 122.249 179.68 122.717 179.102 122.717H160.781C160.203 122.717 159.734 122.249 159.734 121.67V109.108H149.266V121.67C149.266 122.249 148.797 122.717 148.219 122.717H130.422C129.844 122.717 129.375 122.249 129.375 121.67C129.375 121.092 129.844 120.623 130.422 120.623H136.703V97.5922C136.703 97.2475 136.873 96.9249 137.157 96.7296L153.907 85.2139ZM138.797 120.623H147.172V108.061C147.172 107.483 147.641 107.014 148.219 107.014H160.781C161.359 107.014 161.828 107.483 161.828 108.061V120.623H170.203V98.1429L154.5 87.347L138.797 98.1429V120.623Z" fill="black"/><g filter="url(#filter1_d_72_12170)"><mask id="mask1_72_12170" style="mask-type:luminance" maskUnits="userSpaceOnUse" x="485" y="68" width="141" height="79"><path d="M601.951 146.949L508.143 146.909C495.196 145.906 485 135.264 485 122.248C485 108.569 496.252 97.479 510.133 97.479C512.036 97.479 513.881 97.7053 515.662 98.0976C520.086 81.0307 535.745 68.3922 554.443 68.3922C573.299 68.3922 589.073 81.247 593.339 98.5401C595.641 97.8562 598.08 97.479 600.611 97.479C614.492 97.479 625.744 108.569 625.744 122.248C625.744 135.483 615.203 146.258 601.951 146.949Z" fill="white"/></mask><g mask="url(#mask1_72_12170)"><path d="M601.951 146.949L508.143 146.909C495.196 145.906 485 135.264 485 122.248C485 108.569 496.252 97.479 510.133 97.479C512.036 97.479 513.881 97.7053 515.662 98.0976C520.086 81.0307 535.745 68.3922 554.443 68.3922C573.299 68.3922 589.073 81.247 593.339 98.5401C595.641 97.8562 598.08 97.479 600.611 97.479C614.492 97.479 625.744 108.569 625.744 122.248C625.744 135.483 615.203 146.258 601.951 146.949Z" fill="white"/></g></g><path d="M561.734 104.609C562.024 104.333 562.035 103.875 561.759 103.585C561.483 103.295 561.025 103.284 560.735 103.56L555.156 108.874L553.411 107.185C553.124 106.907 552.665 106.914 552.387 107.201C552.109 107.489 552.117 107.947 552.404 108.225L554.649 110.398C554.928 110.668 555.37 110.67 555.652 110.402L561.734 104.609Z" fill="black"/><path fill-rule="evenodd" clip-rule="evenodd" d="M545.944 98.4017C546.956 97.7728 550.125 96.1192 555.442 96.1192C560.758 96.1192 563.928 97.7728 564.94 98.4017C565.368 98.6682 565.58 99.1272 565.58 99.5757V111.251C565.58 112.645 565.259 113.796 564.693 114.773C564.131 115.744 563.348 116.507 562.478 117.159C561.613 117.808 560.632 118.368 559.664 118.914L559.484 119.015C558.564 119.533 557.652 120.046 556.79 120.639C555.981 121.196 554.903 121.196 554.094 120.639C553.231 120.046 552.32 119.533 551.399 119.015L551.22 118.914C550.252 118.368 549.271 117.808 548.406 117.159C547.536 116.507 546.753 115.744 546.191 114.773C545.625 113.796 545.304 112.645 545.304 111.251V99.5757C545.304 99.1272 545.515 98.6682 545.944 98.4017ZM546.753 99.6047V111.251C546.753 112.41 547.016 113.307 547.445 114.048C547.878 114.795 548.501 115.421 549.275 116.001C550.053 116.584 550.954 117.101 551.931 117.652L552.122 117.76C552.967 118.235 553.859 118.737 554.718 119.313C554.718 119.305 554.718 119.298 554.718 119.291V114.906C551.459 114.546 548.925 111.784 548.925 108.429C548.925 105.075 551.459 102.312 554.718 101.952V97.5784C550.24 97.7154 547.588 99.0943 546.753 99.6047ZM556.166 114.906C559.425 114.546 561.959 111.784 561.959 108.429C561.959 108.154 561.942 107.882 561.909 107.615C561.859 107.219 561.497 106.937 561.1 106.986C560.704 107.036 560.422 107.398 560.471 107.795C560.497 108.002 560.511 108.214 560.511 108.429C560.511 111.229 558.241 113.498 555.442 113.498C552.643 113.498 550.373 111.229 550.373 108.429C550.373 105.63 552.643 103.36 555.442 103.36C556.366 103.36 557.231 103.607 557.976 104.038C558.322 104.238 558.765 104.12 558.965 103.774C559.165 103.428 559.047 102.985 558.701 102.784C557.94 102.344 557.081 102.053 556.166 101.952V97.5784C560.643 97.7154 563.296 99.0943 564.131 99.6047V111.251C564.131 112.41 563.868 113.307 563.439 114.048C563.006 114.795 562.383 115.421 561.609 116.001C560.831 116.584 559.93 117.101 558.953 117.652L558.762 117.76C557.917 118.235 557.025 118.737 556.166 119.313C556.166 119.305 556.166 119.298 556.166 119.291V114.906Z" fill="black"/><path fill-rule="evenodd" clip-rule="evenodd" d="M539.511 102.636C539.111 102.636 538.787 102.96 538.787 103.36V125.084H572.097V103.36C572.097 102.96 571.772 102.636 571.372 102.636H567.752C567.352 102.636 567.028 102.312 567.028 101.912C567.028 101.512 567.352 101.188 567.752 101.188H571.372C572.572 101.188 573.545 102.161 573.545 103.36V125.802L575.353 128.518C576.01 129.505 575.999 130.793 575.325 131.769L574.305 133.247C573.764 134.03 572.873 134.497 571.921 134.497H538.962C538.011 134.497 537.12 134.03 536.579 133.247L535.559 131.769C534.885 130.793 534.874 129.505 535.531 128.518L537.339 125.802V103.36C537.339 102.161 538.312 101.188 539.511 101.188H542.408C542.808 101.188 543.132 101.512 543.132 101.912C543.132 102.312 542.808 102.636 542.408 102.636H539.511ZM536.737 129.32L538.593 126.532H572.291L574.147 129.32C574.246 129.468 574.314 129.629 574.353 129.795C574.325 129.792 574.297 129.791 574.269 129.791H536.977C536.795 129.791 536.629 129.858 536.502 129.968C536.526 129.741 536.605 129.519 536.737 129.32ZM536.952 131.238L537.771 132.424C538.041 132.815 538.487 133.049 538.962 133.049H571.921C572.397 133.049 572.843 132.815 573.113 132.424L573.931 131.239H536.977C536.969 131.239 536.96 131.239 536.952 131.238Z" fill="black"/><g filter="url(#filter2_d_72_12170)"><mask id="mask2_72_12170" style="mask-type:luminance" maskUnits="userSpaceOnUse" x="518" y="371" width="122" height="69"><path d="M619.236 439.936L538.033 439.901C526.826 439.033 518 429.821 518 418.554C518 406.713 527.74 397.113 539.756 397.113C541.403 397.113 543 397.309 544.542 397.649C548.372 382.875 561.927 371.935 578.112 371.935C594.434 371.935 608.089 383.062 611.782 398.032C613.774 397.44 615.885 397.113 618.076 397.113C630.092 397.113 639.832 406.713 639.832 418.554C639.832 430.01 630.708 439.338 619.236 439.936Z" fill="white"/></mask><g mask="url(#mask2_72_12170)"><path d="M619.236 439.936L538.033 439.901C526.826 439.033 518 429.821 518 418.554C518 406.713 527.74 397.113 539.756 397.113C541.403 397.113 543 397.309 544.542 397.649C548.372 382.875 561.927 371.935 578.112 371.935C594.434 371.935 608.089 383.062 611.782 398.032C613.774 397.44 615.885 397.113 618.076 397.113C630.092 397.113 639.832 406.713 639.832 418.554C639.832 430.01 630.708 439.338 619.236 439.936Z" fill="white"/><path d="M567.281 397.405C567.281 393.09 570.779 389.592 575.094 389.592C577.892 389.592 580.348 391.063 581.728 393.277C581.929 393.599 582.331 393.73 582.683 393.589C584.079 393.027 585.604 392.717 587.203 392.717C593.891 392.717 599.312 398.139 599.312 404.827C599.312 409.531 596.63 413.611 592.707 415.616C592.323 415.812 592.17 416.283 592.367 416.667C592.563 417.051 593.034 417.204 593.418 417.007C597.843 414.745 600.875 410.141 600.875 404.827C600.875 397.276 594.754 391.155 587.203 391.155C585.625 391.155 584.107 391.423 582.695 391.916C580.993 389.563 578.222 388.03 575.094 388.03C569.916 388.03 565.719 392.227 565.719 397.405C565.719 398.218 565.822 399.007 566.017 399.761C561.064 400.012 557.125 404.108 557.125 409.123C557.125 413.72 560.432 417.542 564.796 418.344C565.221 418.422 565.628 418.141 565.706 417.717C565.784 417.292 565.503 416.885 565.079 416.807C561.443 416.139 558.688 412.952 558.688 409.123C558.688 404.809 562.185 401.311 566.5 401.311C566.682 401.311 566.862 401.317 567.041 401.329C567.308 401.348 567.566 401.228 567.724 401.011C567.882 400.795 567.919 400.513 567.821 400.264C567.473 399.379 567.281 398.415 567.281 397.405Z" fill="black"/><path fill-rule="evenodd" clip-rule="evenodd" d="M579 403.655C575.935 403.655 573.134 403.965 571.077 404.479C570.054 404.735 569.171 405.051 568.525 405.433C567.931 405.784 567.281 406.346 567.281 407.17C567.281 407.249 567.287 407.325 567.298 407.398C567.287 407.451 567.281 407.505 567.281 407.561V426.16C567.281 426.58 567.471 426.926 567.703 427.184C567.931 427.438 568.23 427.645 568.551 427.819C569.194 428.165 570.073 428.453 571.092 428.686C573.144 429.154 575.939 429.436 579 429.436C582.061 429.436 584.856 429.154 586.908 428.686C587.927 428.453 588.806 428.165 589.449 427.819C589.77 427.645 590.069 427.438 590.297 427.184C590.529 426.926 590.719 426.58 590.719 426.16V407.561C590.719 407.505 590.713 407.451 590.702 407.398C590.713 407.325 590.719 407.249 590.719 407.17C590.719 406.346 590.069 405.784 589.475 405.433C588.829 405.051 587.946 404.735 586.923 404.479C584.866 403.965 582.065 403.655 579 403.655ZM569.32 407.562C568.969 407.355 568.875 407.216 568.851 407.17C568.875 407.125 568.969 406.986 569.32 406.779C569.78 406.506 570.499 406.234 571.456 405.995C573.357 405.52 576.024 405.217 579 405.217C581.976 405.217 584.643 405.52 586.544 405.995C587.501 406.234 588.22 406.506 588.68 406.779C589.031 406.986 589.125 407.125 589.149 407.17C589.125 407.216 589.031 407.355 588.68 407.562C588.22 407.834 587.501 408.107 586.544 408.346C584.643 408.821 581.976 409.123 579 409.123C576.024 409.123 573.357 408.821 571.456 408.346C570.499 408.107 569.78 407.834 569.32 407.562ZM568.844 421.426V418.59C569.45 418.872 570.22 419.112 571.092 419.311C573.144 419.779 575.939 420.061 579 420.061C582.061 420.061 584.856 419.779 586.908 419.311C587.78 419.112 588.55 418.872 589.156 418.59V421.426C589.151 421.433 589.144 421.442 589.134 421.453C589.07 421.524 588.94 421.63 588.707 421.756C588.243 422.006 587.52 422.256 586.56 422.475C584.653 422.91 581.98 423.186 579 423.186C576.02 423.186 573.347 422.91 571.44 422.475C570.48 422.256 569.757 422.006 569.293 421.756C569.06 421.63 568.93 421.524 568.866 421.453C568.856 421.442 568.849 421.433 568.844 421.426ZM586.908 423.998C587.78 423.799 588.55 423.56 589.156 423.277V426.114C589.151 426.121 589.144 426.13 589.134 426.141C589.07 426.212 588.94 426.318 588.707 426.443C588.243 426.694 587.52 426.943 586.56 427.162C584.653 427.597 581.98 427.873 579 427.873C576.02 427.873 573.347 427.597 571.44 427.162C570.48 426.943 569.757 426.694 569.293 426.443C569.06 426.318 568.93 426.212 568.866 426.141C568.856 426.13 568.849 426.121 568.844 426.114V423.277C569.45 423.56 570.22 423.799 571.092 423.998C573.144 424.466 575.939 424.748 579 424.748C582.061 424.748 584.856 424.466 586.908 423.998ZM589.156 413.902C588.55 414.185 587.78 414.424 586.908 414.623C584.856 415.091 582.061 415.373 579 415.373C575.939 415.373 573.144 415.091 571.092 414.623C570.22 414.424 569.45 414.185 568.844 413.902V416.739C568.849 416.746 568.856 416.755 568.866 416.766C568.93 416.837 569.06 416.943 569.293 417.068C569.757 417.319 570.48 417.568 571.44 417.787C573.347 418.222 576.02 418.498 579 418.498C581.98 418.498 584.653 418.222 586.56 417.787C587.52 417.568 588.243 417.319 588.707 417.068C588.94 416.943 589.07 416.837 589.134 416.766C589.144 416.755 589.151 416.746 589.156 416.739V413.902ZM568.844 412.051V409.081C569.45 409.387 570.213 409.646 571.077 409.862C573.134 410.376 575.935 410.686 579 410.686C582.065 410.686 584.866 410.376 586.923 409.862C587.787 409.646 588.55 409.387 589.156 409.081V412.051L589.15 412.06L589.146 412.064L589.141 412.071L589.134 412.078C589.07 412.149 588.94 412.255 588.707 412.381C588.243 412.631 587.52 412.881 586.56 413.1C584.653 413.535 581.98 413.811 579 413.811C576.02 413.811 573.347 413.535 571.44 413.1C570.48 412.881 569.757 412.631 569.293 412.381C569.06 412.255 568.93 412.149 568.866 412.078C568.856 412.067 568.849 412.058 568.844 412.051Z" fill="black"/></g></g><g filter="url(#filter3_d_72_12170)"><mask id="mask3_72_12170" style="mask-type:luminance" maskUnits="userSpaceOnUse" x="10" y="414" width="203" height="114"><path d="M178.445 527.459L43.3325 527.401C24.6854 525.956 10 510.628 10 491.882C10 472.179 26.2069 456.207 46.1991 456.207C48.9406 456.207 51.5976 456.533 54.1628 457.098C60.5353 432.516 83.089 414.313 110.02 414.313C137.178 414.313 159.897 432.828 166.042 457.735C169.357 456.75 172.87 456.207 176.516 456.207C196.508 456.207 212.715 472.179 212.715 491.882C212.715 510.944 197.533 526.463 178.445 527.459Z" fill="white"/></mask><g mask="url(#mask3_72_12170)"><path d="M178.445 527.459L43.3325 527.401C24.6854 525.956 10 510.628 10 491.882C10 472.179 26.2069 456.207 46.1991 456.207C48.9406 456.207 51.5976 456.533 54.1628 457.098C60.5353 432.516 83.089 414.313 110.02 414.313C137.178 414.313 159.897 432.828 166.042 457.735C169.357 456.75 172.87 456.207 176.516 456.207C196.508 456.207 212.715 472.179 212.715 491.882C212.715 510.944 197.533 526.463 178.445 527.459Z" fill="white"/></g></g><path fill-rule="evenodd" clip-rule="evenodd" d="M137.625 452.348C138.863 451.911 139.75 450.73 139.75 449.342C139.75 447.582 138.323 446.155 136.562 446.155C134.802 446.155 133.375 447.582 133.375 449.342C133.375 450.73 134.262 451.911 135.5 452.348V459.087C135.5 459.369 135.388 459.639 135.189 459.838L129.437 465.59C129.021 465.391 128.555 465.28 128.062 465.28C126.302 465.28 124.875 466.707 124.875 468.467C124.875 470.228 126.302 471.655 128.062 471.655C129.823 471.655 131.25 470.228 131.25 468.467C131.25 467.975 131.138 467.509 130.939 467.093L136.691 461.341C137.289 460.743 137.625 459.932 137.625 459.087V452.348ZM137.625 449.342C137.625 448.755 137.149 448.28 136.562 448.28C135.976 448.28 135.5 448.755 135.5 449.342C135.5 449.929 135.976 450.405 136.562 450.405C137.149 450.405 137.625 449.929 137.625 449.342ZM128.062 467.405C128.649 467.405 129.125 467.88 129.125 468.467C129.125 469.054 128.649 469.53 128.062 469.53C127.476 469.53 127 469.054 127 468.467C127 467.88 127.476 467.405 128.062 467.405Z" fill="black"/><path fill-rule="evenodd" clip-rule="evenodd" d="M131.25 482.28C131.25 483.668 130.363 484.848 129.125 485.286V493.527L135.188 499.59C135.604 499.391 136.07 499.28 136.562 499.28C138.323 499.28 139.75 500.707 139.75 502.467C139.75 504.228 138.323 505.655 136.562 505.655C134.802 505.655 133.375 504.228 133.375 502.467C133.375 501.975 133.487 501.509 133.686 501.093L127.311 494.719C127.112 494.519 127 494.249 127 493.967V485.286C125.762 484.848 124.875 483.668 124.875 482.28C124.875 480.519 126.302 479.092 128.062 479.092C129.823 479.092 131.25 480.519 131.25 482.28ZM129.125 482.28C129.125 481.693 128.649 481.217 128.062 481.217C127.476 481.217 127 481.693 127 482.28C127 482.867 127.476 483.342 128.062 483.342C128.649 483.342 129.125 482.867 129.125 482.28ZM136.562 501.405C137.149 501.405 137.625 501.88 137.625 502.467C137.625 503.054 137.149 503.53 136.562 503.53C135.976 503.53 135.5 503.054 135.5 502.467C135.5 501.88 135.976 501.405 136.562 501.405Z" fill="black"/><path fill-rule="evenodd" clip-rule="evenodd" d="M93 484.223C94.238 483.786 95.125 482.605 95.125 481.217C95.125 479.457 93.6979 478.03 91.9375 478.03C90.1771 478.03 88.75 479.457 88.75 481.217C88.75 482.605 89.637 483.786 90.875 484.223V493.527L84.8118 499.59C84.3956 499.391 83.9296 499.28 83.4375 499.28C81.6771 499.28 80.25 500.707 80.25 502.467C80.25 504.228 81.6771 505.655 83.4375 505.655C85.1979 505.655 86.625 504.228 86.625 502.467C86.625 501.975 86.5135 501.509 86.3144 501.093L92.6888 494.719C92.8881 494.519 93 494.249 93 493.967V484.223ZM91.9375 480.155C91.3507 480.155 90.875 480.63 90.875 481.217C90.875 481.804 91.3507 482.28 91.9375 482.28C92.5243 482.28 93 481.804 93 481.217C93 480.63 92.5243 480.155 91.9375 480.155ZM82.375 502.467C82.375 501.88 82.8507 501.405 83.4375 501.405C84.0243 501.405 84.5 501.88 84.5 502.467C84.5 503.054 84.0243 503.53 83.4375 503.53C82.8507 503.53 82.375 503.054 82.375 502.467Z" fill="black"/><path fill-rule="evenodd" clip-rule="evenodd" d="M111.062 495.911V499.461C112.301 499.899 113.188 501.079 113.188 502.467C113.188 504.228 111.76 505.655 110 505.655C108.24 505.655 106.812 504.228 106.812 502.467C106.812 501.079 107.699 499.899 108.938 499.461V495.911C107.699 495.473 106.812 494.293 106.812 492.905C106.812 491.144 108.24 489.717 110 489.717C111.76 489.717 113.188 491.144 113.188 492.905C113.188 494.293 112.301 495.473 111.062 495.911ZM110 493.967C110.587 493.967 111.062 493.492 111.062 492.905C111.062 492.318 110.587 491.842 110 491.842C109.413 491.842 108.938 492.318 108.938 492.905C108.938 493.492 109.413 493.967 110 493.967ZM110 501.405C110.587 501.405 111.062 501.88 111.062 502.467C111.062 503.054 110.587 503.53 110 503.53C109.413 503.53 108.938 503.054 108.938 502.467C108.938 501.88 109.413 501.405 110 501.405Z" fill="black"/><path fill-rule="evenodd" clip-rule="evenodd" d="M91.651 450.665L94.8647 453.879C95.2676 453.695 95.7156 453.592 96.1875 453.592C97.9479 453.592 99.375 455.019 99.375 456.78C99.375 458.54 97.9479 459.967 96.1875 459.967C94.4271 459.967 93 458.54 93 456.78C93 456.268 93.1208 455.784 93.3355 455.355L90.1751 452.194C88.9815 452.791 87.4915 452.592 86.4961 451.596C85.2513 450.351 85.2513 448.333 86.4961 447.088C87.7409 445.844 89.7591 445.844 91.0039 447.088C91.9711 448.056 92.1868 449.49 91.651 450.665ZM89.5013 448.591C89.9162 449.006 89.9162 449.679 89.5013 450.094C89.0864 450.509 88.4136 450.509 87.9987 450.094C87.5838 449.679 87.5838 449.006 87.9987 448.591C88.4136 448.176 89.0864 448.176 89.5013 448.591ZM96.1875 455.717C95.6007 455.717 95.125 456.193 95.125 456.78C95.125 457.367 95.6007 457.842 96.1875 457.842C96.7743 457.842 97.25 457.367 97.25 456.78C97.25 456.193 96.7743 455.717 96.1875 455.717Z" fill="black"/><path d="M115.061 474.466C115.44 474.018 115.384 473.348 114.936 472.969C114.488 472.59 113.818 472.646 113.439 473.093L108.341 479.118L105.97 476.747C105.555 476.332 104.882 476.332 104.467 476.747C104.053 477.162 104.053 477.835 104.467 478.25L107.655 481.437C107.865 481.647 108.154 481.76 108.45 481.748C108.747 481.735 109.025 481.599 109.217 481.372L115.061 474.466Z" fill="black"/><path fill-rule="evenodd" clip-rule="evenodd" d="M99.375 476.967C99.375 471.099 104.132 466.342 110 466.342C115.868 466.342 120.625 471.099 120.625 476.967C120.625 482.835 115.868 487.592 110 487.592C104.132 487.592 99.375 482.835 99.375 476.967ZM110 468.467C105.306 468.467 101.5 472.273 101.5 476.967C101.5 481.662 105.306 485.467 110 485.467C114.694 485.467 118.5 481.662 118.5 476.967C118.5 472.273 114.694 468.467 110 468.467Z" fill="black"/><path d="M101.307 455.204C102.367 454.848 103.504 454.655 104.688 454.655C108.493 454.655 111.833 456.655 113.711 459.667C113.983 460.104 114.531 460.283 115.009 460.09C116.907 459.326 118.981 458.905 121.156 458.905C124.472 458.905 127.556 459.883 130.138 461.567C130.63 461.888 131.288 461.749 131.609 461.258C131.929 460.766 131.791 460.108 131.299 459.787C128.382 457.885 124.896 456.78 121.156 456.78C119.009 456.78 116.946 457.144 115.025 457.815C112.71 454.615 108.943 452.53 104.688 452.53C103.271 452.53 101.907 452.761 100.631 453.189C100.075 453.376 99.7748 453.978 99.9614 454.534C100.148 455.091 100.75 455.39 101.307 455.204Z" fill="black"/><path d="M94.6114 461.899C94.798 461.343 94.4983 460.74 93.9419 460.554C93.3856 460.367 92.7833 460.667 92.5967 461.223C92.1689 462.499 91.9375 463.863 91.9375 465.28C91.9375 466.385 92.0785 467.459 92.3437 468.484C85.6071 468.825 80.25 474.396 80.25 481.217C80.25 486.402 83.3449 490.862 87.7836 492.855C88.319 493.095 88.9478 492.856 89.1881 492.32C89.4284 491.785 89.1892 491.156 88.6539 490.916C84.9507 489.254 82.375 485.535 82.375 481.217C82.375 475.349 87.132 470.592 93 470.592C93.2473 470.592 93.4924 470.601 93.7352 470.617C94.0987 470.642 94.4495 470.479 94.6648 470.185C94.88 469.891 94.9296 469.507 94.7962 469.168C94.323 467.965 94.0625 466.654 94.0625 465.28C94.0625 464.096 94.2557 462.96 94.6114 461.899Z" fill="black"/><path d="M136.932 465.528C136.621 465.03 135.965 464.879 135.468 465.19C134.97 465.501 134.819 466.157 135.13 466.655C136.711 469.182 137.625 472.17 137.625 475.374C137.625 480.938 134.866 485.858 130.638 488.841C130.158 489.179 130.044 489.842 130.382 490.322C130.72 490.801 131.383 490.916 131.862 490.577C136.632 487.213 139.75 481.658 139.75 475.374C139.75 471.76 138.718 468.384 136.932 465.528Z" fill="black"/><path d="M124.536 493.661C125.113 493.555 125.495 493.001 125.389 492.424C125.283 491.847 124.729 491.465 124.152 491.571C123.181 491.749 122.18 491.842 121.156 491.842C120.989 491.842 120.823 491.84 120.657 491.835C120.603 491.833 120.549 491.836 120.496 491.842H115.578C114.991 491.842 114.516 492.318 114.516 492.905C114.516 493.492 114.991 493.967 115.578 493.967H120.625C120.659 493.967 120.694 493.966 120.727 493.962C120.87 493.966 121.013 493.967 121.156 493.967C122.309 493.967 123.439 493.862 124.536 493.661Z" fill="black"/><path d="M96.1875 491.842C95.6007 491.842 95.125 492.318 95.125 492.905C95.125 493.492 95.6007 493.967 96.1875 493.967H103.625C104.212 493.967 104.688 493.492 104.688 492.905C104.688 492.318 104.212 491.842 103.625 491.842H96.1875Z" fill="black"/><path d="M410.629 280.256C405.399 279.666 400.15 281.179 396.035 284.462C391.92 287.746 389.277 292.531 388.687 297.765C387.459 308.665 393.196 332.333 403.656 342.131C408.581 323.359 425.839 312.225 428.122 302.217C430.562 291.524 421.518 281.486 410.629 280.256Z" fill="#E8C457"/><path d="M407.023 305.131C410.613 305.131 413.523 301.997 413.523 298.131C413.523 294.265 410.613 291.131 407.023 291.131C403.433 291.131 400.523 294.265 400.523 298.131C400.523 301.997 403.433 305.131 407.023 305.131Z" fill="white"/><path d="M404.023 353.131C406.509 353.131 408.523 351.34 408.523 349.131C408.523 346.922 406.509 345.131 404.023 345.131C401.538 345.131 399.523 346.922 399.523 349.131C399.523 351.34 401.538 353.131 404.023 353.131Z" fill="#E8C457"/><path d="M309.769 226.236C299.888 225.122 289.969 227.978 282.194 234.177C274.419 240.376 269.425 249.409 268.31 259.29C265.989 279.866 276.829 324.548 296.593 343.044C305.899 307.607 338.508 286.587 342.822 267.695C347.433 247.508 330.345 228.557 309.769 226.236Z" fill="#E8C457"/><path d="M302.935 271.979C309.688 271.979 315.162 266.505 315.162 259.752C315.162 252.999 309.688 247.524 302.935 247.524C296.182 247.524 290.707 252.999 290.707 259.752C290.707 266.505 296.182 271.979 302.935 271.979Z" fill="white"/><path d="M297.532 365.148C301.955 365.148 305.541 361.563 305.541 357.14C305.541 352.717 301.955 349.131 297.532 349.131C293.109 349.131 289.523 352.717 289.523 357.14C289.523 361.563 293.109 365.148 297.532 365.148Z" fill="#E8C457"/><defs><filter id="filter0_d_72_12170" x="44" y="17" width="230.715" height="141.147" filterUnits="userSpaceOnUse" color-interpolation-filters="sRGB"><feFlood flood-opacity="0" result="BackgroundImageFix"/><feColorMatrix in="SourceAlpha" type="matrix" values="0 0 0 0 0 0 0 0 0 0 0 0 0 0 0 0 0 0 127 0" result="hardAlpha"/><feMorphology radius="4" operator="dilate" in="SourceAlpha" result="effect1_dropShadow_72_12170"/><feOffset dx="4" dy="4"/><feGaussianBlur stdDeviation="5"/><feComposite in2="hardAlpha" operator="out"/><feColorMatrix type="matrix" values="0 0 0 0 0 0 0 0 0 0 0 0 0 0 0 0 0 0 0.1 0"/><feBlend mode="normal" in2="BackgroundImageFix" result="effect1_dropShadow_72_12170"/><feBlend mode="normal" in="SourceGraphic" in2="effect1_dropShadow_72_12170" result="shape"/></filter><filter id="filter1_d_72_12170" x="475" y="58.3922" width="168.744" height="106.557" filterUnits="userSpaceOnUse" color-interpolation-filters="sRGB"><feFlood flood-opacity="0" result="BackgroundImageFix"/><feColorMatrix in="SourceAlpha" type="matrix" values="0 0 0 0 0 0 0 0 0 0 0 0 0 0 0 0 0 0 127 0" result="hardAlpha"/><feMorphology radius="4" operator="dilate" in="SourceAlpha" result="effect1_dropShadow_72_12170"/><feOffset dx="4" dy="4"/><feGaussianBlur stdDeviation="5"/><feComposite in2="hardAlpha" operator="out"/><feColorMatrix type="matrix" values="0 0 0 0 0 0 0 0 0 0 0 0 0 0 0 0 0 0 0.1 0"/><feBlend mode="normal" in2="BackgroundImageFix" result="effect1_dropShadow_72_12170"/><feBlend mode="normal" in="SourceGraphic" in2="effect1_dropShadow_72_12170" result="shape"/></filter><filter id="filter2_d_72_12170" x="508" y="361.935" width="149.832" height="96.0015" filterUnits="userSpaceOnUse" color-interpolation-filters="sRGB"><feFlood flood-opacity="0" result="BackgroundImageFix"/><feColorMatrix in="SourceAlpha" type="matrix" values="0 0 0 0 0 0 0 0 0 0 0 0 0 0 0 0 0 0 127 0" result="hardAlpha"/><feMorphology radius="4" operator="dilate" in="SourceAlpha" result="effect1_dropShadow_72_12170"/><feOffset dx="4" dy="4"/><feGaussianBlur stdDeviation="5"/><feComposite in2="hardAlpha" operator="out"/><feColorMatrix type="matrix" values="0 0 0 0 0 0 0 0 0 0 0 0 0 0 0 0 0 0 0.1 0"/><feBlend mode="normal" in2="BackgroundImageFix" result="effect1_dropShadow_72_12170"/><feBlend mode="normal" in="SourceGraphic" in2="effect1_dropShadow_72_12170" result="shape"/></filter><filter id="filter3_d_72_12170" x="0" y="404.313" width="230.715" height="141.147" filterUnits="userSpaceOnUse" color-interpolation-filters="sRGB"><feFlood flood-opacity="0" result="BackgroundImageFix"/><feColorMatrix in="SourceAlpha" type="matrix" values="0 0 0 0 0 0 0 0 0 0 0 0 0 0 0 0 0 0 127 0" result="hardAlpha"/><feMorphology radius="4" operator="dilate" in="SourceAlpha" result="effect1_dropShadow_72_12170"/><feOffset dx="4" dy="4"/><feGaussianBlur stdDeviation="5"/><feComposite in2="hardAlpha" operator="out"/><feColorMatrix type="matrix" values="0 0 0 0 0 0 0 0 0 0 0 0 0 0 0 0 0 0 0.1 0"/><feBlend mode="normal" in2="BackgroundImageFix" result="effect1_dropShadow_72_12170"/><feBlend mode="normal" in="SourceGraphic" in2="effect1_dropShadow_72_12170" result="shape"/></filter></defs></svg>