<svg width="186" height="176" fill="none" xmlns="http://www.w3.org/2000/svg"><path d="M185.417 87.1963C185.417 82.304 181.363 78.1104 176.573 77.4115L175.467 74.9655L172.15 76.3632L172.519 77.4115C168.465 78.4599 165.517 81.6051 164.78 85.449H141.931C141.194 74.6161 136.772 64.1325 128.664 56.0951L144.879 41.0688C146.353 42.1172 148.565 42.4665 150.407 42.4665C152.25 42.4665 154.461 41.7677 155.935 41.0688L159.252 39.6709L158.515 38.2733C159.989 36.526 160.726 34.4293 160.357 32.3326C160.357 29.537 159.252 27.0908 157.041 25.3436C155.198 23.5963 152.618 22.548 149.67 22.548C147.09 22.548 144.879 23.2467 143.037 24.994L140.826 24.2952L139.351 27.4402L140.457 27.7898C139.72 29.1876 138.983 30.9347 138.983 32.6819C138.983 34.7786 139.72 37.2248 141.194 38.6226L124.979 53.6489C116.134 45.961 104.71 41.4182 92.5487 41.4182V20.1018C96.971 19.7524 100.656 16.6073 101.762 12.4139H102.13L103.604 9.26872L102.13 8.56999C101.393 3.67769 96.9709 0.183105 91.8116 0.183105C88.8634 0.183105 86.2837 1.23154 84.4411 3.32824C82.5984 5.07549 81.4929 7.87109 81.4929 10.3172V10.6666C81.4929 13.1128 82.5984 15.559 84.4411 17.3062C85.9152 18.704 87.3893 19.4028 89.232 19.7522V41.4182C77.4391 42.1171 66.7518 47.0094 58.6443 54.3479L42.7977 38.972C43.9033 37.2247 44.6403 35.4776 44.6403 33.3809C44.6403 31.9831 44.2717 30.5852 43.5347 29.1874L45.0089 28.4885L43.5347 25.3436L41.3236 26.3919C39.481 24.6446 36.9013 23.5963 33.9531 23.5963C31.0049 23.5963 28.4252 24.6445 26.5826 26.7412C24.7399 28.4885 23.6343 31.2841 23.6343 33.7302C23.6343 35.8269 24.3714 37.9237 25.8455 39.6709L24.7399 42.4665L28.0567 43.8644L28.7936 42.1171C30.2677 43.1655 32.1105 43.515 33.9531 43.515C36.1642 43.515 38.0068 42.8161 39.8494 41.7678L55.6961 57.1434C47.9571 65.1808 43.5348 75.6644 43.1662 87.1963H20.6861C19.9491 82.6534 15.8953 79.1588 11.1044 79.1588L9.26181 78.46L8.89327 79.1588C3.7339 79.8577 -0.319856 84.0512 0.0486693 88.9435C0.0486693 94.1853 4.10245 98.0292 9.26181 98.7281L9.63036 99.7764L12.9471 98.3785C14.7897 98.0291 16.2638 96.9809 17.7379 95.9325C19.212 94.5347 20.3176 92.7875 20.6861 90.6908H43.5347C44.2717 101.873 49.0626 112.357 56.8016 120.044L40.5865 135.071C39.1124 134.022 37.2698 133.673 35.0586 133.673C33.216 133.673 31.3734 134.372 29.8993 135.071L29.5307 134.022L26.214 135.42L27.3196 137.517C25.8455 139.264 25.1084 141.361 25.1084 143.458C25.1084 146.253 26.214 148.699 28.4252 150.447C30.6364 152.194 33.216 153.242 35.7957 153.242C38.3754 153.242 41.3236 152.194 43.1662 150.097L43.5347 149.748L45.0089 150.447L46.4829 147.302L45.3773 146.952C45.7458 145.904 46.1144 144.506 46.1144 143.458C46.1144 141.361 45.3773 138.915 43.9032 137.517L60.1183 122.491C68.5944 129.829 80.0188 134.721 92.5487 134.721V156.038C89.969 156.387 87.7578 157.086 86.2837 158.834C85.1781 159.882 84.441 160.93 84.0725 162.328L82.5984 165.473L83.3355 165.823C83.3355 171.414 88.1263 175.607 93.6542 175.607C98.8136 175.607 103.236 171.763 103.973 167.22L104.71 166.871L103.973 165.473C103.973 160.93 100.656 157.436 96.2339 156.387V134.721C108.027 134.023 118.714 129.13 126.822 121.792L142.668 137.168C140.089 140.662 140.089 145.205 142.668 148.35L140.826 149.049L142.3 152.194L145.616 150.796C147.459 151.844 149.302 152.543 151.144 152.543C154.092 152.543 156.672 151.495 158.515 149.398C162.2 145.554 162.569 139.614 158.883 135.77L159.252 134.721L155.935 133.324C154.461 132.625 152.618 132.275 151.144 132.275C148.933 132.275 147.09 132.974 145.248 134.022L129.401 118.647C137.14 110.609 141.563 100.126 141.931 88.5939H164.411C164.78 90.6907 165.885 92.4379 167.359 93.8357C168.465 94.884 170.308 95.9324 171.782 96.2819L171.413 97.3302L174.73 98.7281L175.467 96.6313C178.047 96.2818 180.258 95.5829 182.1 93.8357C184.312 92.0884 185.417 89.6424 185.417 87.1963ZM15.8952 93.1368C14.7897 94.5346 12.9471 94.8841 11.1044 95.2336C7.41919 95.2336 4.47102 92.438 4.47102 88.9435C4.47102 85.449 7.41919 82.3039 11.1044 82.3039C14.7897 82.3039 17.7379 85.0994 17.7379 88.5939C18.1064 90.3412 17.3693 91.739 15.8952 93.1368ZM73.0167 107.115C74.1223 112.007 75.5965 116.201 77.4391 120.044C79.2817 124.238 81.4928 127.383 84.0725 129.48C66.7518 125.985 53.1163 113.405 49.0626 96.9808C53.8534 101.873 62.3295 105.368 73.0167 107.115ZM47.957 88.2446C47.957 84.0512 52.3793 79.5083 60.4869 76.0138C63.8036 74.616 67.8574 73.2182 72.2798 72.5193C71.5427 77.4116 71.1741 82.6533 71.1741 87.895C71.1741 93.1368 71.5427 98.3786 72.6483 103.271C57.9073 100.475 47.957 94.8841 47.957 88.2446ZM93.2857 130.878C88.4948 130.878 84.0725 126.684 80.3873 118.996C78.9131 115.851 77.439 112.007 76.702 107.814C81.4928 108.513 86.6522 108.862 91.8116 108.862C92.1801 108.862 92.5487 108.862 92.9172 108.862C98.4451 108.862 103.973 108.513 109.132 107.464C108.395 111.658 106.921 115.152 105.447 118.647C102.499 126.335 98.0765 130.878 93.2857 130.878ZM93.2857 105.368C87.3892 105.368 81.4929 105.018 76.3336 104.319C75.228 99.4269 74.8594 93.8358 74.8594 88.2446C74.8594 82.6534 75.228 77.062 75.965 72.1697C81.1244 71.1214 87.0208 70.7721 92.9172 70.7721C98.8136 70.7721 104.71 71.1215 109.869 71.8204C110.975 76.7127 111.344 82.3038 111.344 87.895C111.344 93.4862 110.975 99.0775 110.238 103.97C104.71 104.669 99.1821 105.368 93.2857 105.368ZM92.5487 44.9127C96.971 44.9127 101.762 49.1062 105.447 56.7941C106.921 59.9391 108.395 63.7831 109.132 67.9765C103.973 67.2776 98.4451 66.928 92.9172 66.928C87.3893 66.928 81.8614 67.2775 76.702 68.3259C79.6502 54.6973 85.5467 44.9127 92.5487 44.9127ZM113.555 72.1697C117.977 72.8686 121.662 74.2664 125.347 75.6642C133.455 78.8093 138.246 83.3522 138.246 87.5456C138.246 91.739 133.824 96.2819 125.716 99.7764C122.399 101.174 118.345 102.572 113.923 103.271C114.66 98.3786 115.029 93.1368 115.029 87.895C115.029 82.3038 114.66 77.062 113.555 72.1697ZM150.407 26.0425C152.25 26.0425 154.092 26.7414 155.198 27.7898C156.672 28.8381 157.041 30.5853 157.409 32.3326C157.409 34.0798 156.672 35.827 155.567 36.8754C154.461 38.2732 152.618 38.6225 150.776 38.972C148.933 38.972 147.459 38.2731 145.985 37.2247C144.511 36.1764 144.142 34.4292 143.774 32.6819C143.774 30.9347 144.511 29.1875 145.616 28.1391C146.722 26.7413 148.565 26.0425 150.407 26.0425ZM137.14 78.46C134.561 76.3633 131.244 74.2666 126.822 72.5193C122.768 70.7721 117.977 69.7236 112.818 68.6752C111.712 63.7829 110.238 59.5897 108.395 55.7458C106.553 51.5524 104.341 48.4071 101.762 45.961C110.238 47.7082 117.977 51.5524 124.242 57.493C130.875 63.0842 135.298 70.4227 137.14 78.46ZM85.5467 10.3172C85.5467 8.56999 86.2838 6.82257 87.3893 5.77422C88.4949 4.72587 90.3375 4.02706 92.1801 3.67761C94.0228 3.67761 95.4968 4.37651 96.9709 5.42486C98.445 6.47321 98.8136 8.22042 99.1821 9.96767C99.1821 13.4622 96.2339 16.6073 92.5487 16.6073C90.706 16.6073 88.8633 15.9084 87.7578 14.8601C86.2837 13.8117 85.5467 12.0645 85.5467 10.3172ZM82.967 45.961C78.1761 50.8533 74.4909 58.8908 72.6483 69.0248C67.4889 70.0732 63.0666 71.471 59.0128 73.2183C54.5905 74.9655 51.2737 77.0622 49.0626 79.5083C50.9052 71.471 54.959 64.1324 61.224 58.1917C66.7519 51.9016 74.4909 47.7082 82.967 45.961ZM34.6901 40.0205C33.216 40.0205 31.0049 39.3216 29.8993 38.2733C28.4252 37.2249 28.0566 35.4775 27.6881 33.7302C27.6881 31.983 28.4252 30.2358 29.5307 29.1874C30.6363 27.7896 32.4789 27.4403 34.3215 27.0908C36.1642 27.0908 37.6383 27.7897 39.1124 28.8381C40.5865 29.8864 40.9551 31.6336 41.3236 33.3809C41.3236 35.1281 40.5866 36.8753 39.481 37.9237C38.3754 39.3215 36.5327 40.0205 34.6901 40.0205ZM31.0048 148C29.5307 146.952 29.1622 145.205 28.7936 143.458C28.7936 141.71 29.5307 139.963 30.6363 138.915C31.7418 137.517 33.5845 137.167 35.4272 136.818C37.2698 136.818 38.7439 137.517 40.218 138.565C41.6921 139.614 42.0606 141.361 42.4291 143.108C42.4291 144.856 41.6921 146.603 40.5865 147.651C38.0068 150.447 33.5845 150.447 31.0048 148ZM100.656 165.473C100.656 168.967 97.708 172.113 94.0228 172.113C90.3375 172.113 87.3893 169.317 87.3893 165.823C87.3893 164.075 88.1264 162.328 89.232 161.28C90.3375 159.882 92.1801 159.532 94.0228 159.183C97.708 158.833 100.656 161.978 100.656 165.473ZM103.236 129.829C105.447 127.383 107.658 124.238 109.501 120.044C111.344 116.201 112.449 111.658 113.555 106.765C118.714 105.717 123.136 104.319 127.559 102.572C131.981 100.825 135.298 98.728 137.509 96.2819C135.666 104.319 131.612 111.658 125.347 117.598C119.083 123.888 111.343 127.732 103.236 129.829ZM151.513 135.77C153.355 135.77 155.198 136.469 156.304 137.517C158.883 139.963 158.883 144.157 156.304 146.603C155.198 148.001 153.355 148.35 151.513 148.699C149.67 148.699 147.827 148.001 146.722 146.952C145.248 145.904 144.879 144.157 144.511 142.409C144.511 140.662 145.248 138.915 146.353 137.867C147.828 136.469 149.67 135.77 151.513 135.77ZM179.889 91.7391C178.784 93.1369 176.941 93.4863 175.098 93.8357C173.256 93.8357 171.413 93.1368 170.308 92.0884C168.834 91.0401 168.465 89.2929 168.096 87.5456C167.728 85.7984 168.834 84.0512 169.939 83.0028C171.045 81.605 172.887 81.2555 174.73 80.906C178.415 80.906 181.363 83.7018 181.363 87.1963C181.732 88.9435 180.995 90.3413 179.889 91.7391Z" fill="#4F4F4F"/><path d="M18.2956 107.769L14.9063 109.14L16.3528 112.354L19.7421 110.982L18.2956 107.769Z" fill="#4F4F4F"/><path d="M15.2667 101.168L11.8774 102.54L13.3238 105.754L16.7132 104.382L15.2667 101.168Z" fill="#4F4F4F"/><path d="M26.7559 127.06L23.3666 128.432L24.813 131.646L28.2024 130.274L26.7559 127.06Z" fill="#4F4F4F"/><path d="M21.1808 114.045L17.7914 115.417L19.2379 118.631L22.6272 117.259L21.1808 114.045Z" fill="#4F4F4F"/><path d="M24.1819 121.044L20.7896 122.41L22.2302 125.626L25.6225 124.26L24.1819 121.044Z" fill="#4F4F4F"/><path d="M57.7946 20.2263L54.3901 21.564L55.8009 24.7922L59.2053 23.4545L57.7946 20.2263Z" fill="#4F4F4F"/><path d="M51.057 22.6252L47.6525 23.9629L49.0632 27.1911L52.4677 25.8534L51.057 22.6252Z" fill="#4F4F4F"/><path d="M64.7335 17.3703L61.329 18.708L62.7398 21.9362L66.1442 20.5985L64.7335 17.3703Z" fill="#4F4F4F"/><path d="M78.4115 12.1154L75.0071 13.4531L76.4178 16.6813L79.8222 15.3437L78.4115 12.1154Z" fill="#4F4F4F"/><path d="M71.3316 14.6481L67.9271 15.9858L69.3378 19.2141L72.7423 17.8764L71.3316 14.6481Z" fill="#4F4F4F"/><path d="M127.78 18.5618L126.369 21.79L129.774 23.1277L131.184 19.8995L127.78 18.5618Z" fill="#4F4F4F"/><path d="M134.642 21.4354L133.231 24.6636L136.636 26.0013L138.046 22.773L134.642 21.4354Z" fill="#4F4F4F"/><path d="M114.262 13.2674L112.851 16.4956L116.256 17.8333L117.666 14.6051L114.262 13.2674Z" fill="#4F4F4F"/><path d="M107.26 10.7112L105.849 13.9395L109.253 15.2771L110.664 12.0489L107.26 10.7112Z" fill="#4F4F4F"/><path d="M121.121 16.1434L119.71 19.3716L123.114 20.7093L124.525 17.4811L121.121 16.1434Z" fill="#4F4F4F"/><path d="M49.7885 148.48L48.3778 151.708L51.7822 153.046L53.193 149.817L49.7885 148.48Z" fill="#4F4F4F"/><path d="M70.1688 156.646L68.7581 159.875L72.1626 161.212L73.5733 157.984L70.1688 156.646Z" fill="#4F4F4F"/><path d="M56.6506 151.352L55.2399 154.58L58.6444 155.918L60.0551 152.69L56.6506 151.352Z" fill="#4F4F4F"/><path d="M77.1706 159.202L75.7599 162.431L79.1643 163.768L80.575 160.54L77.1706 159.202Z" fill="#4F4F4F"/><path d="M63.3099 153.77L61.8992 156.999L65.3037 158.336L66.7144 155.108L63.3099 153.77Z" fill="#4F4F4F"/><path d="M117.035 157.88L113.63 159.217L115.041 162.446L118.445 161.108L117.035 157.88Z" fill="#4F4F4F"/><path d="M110.436 160.601L107.032 161.938L108.443 165.167L111.847 163.829L110.436 160.601Z" fill="#4F4F4F"/><path d="M123.633 155.157L120.229 156.495L121.639 159.723L125.044 158.385L123.633 155.157Z" fill="#4F4F4F"/><path d="M130.713 152.624L127.308 153.961L128.719 157.19L132.124 155.852L130.713 152.624Z" fill="#4F4F4F"/><path d="M137.309 149.902L133.905 151.24L135.316 154.468L138.72 153.13L137.309 149.902Z" fill="#4F4F4F"/><path d="M21.0791 52.1455L19.7041 55.3877L23.1233 56.6915L24.4983 53.4493L21.0791 52.1455Z" fill="#4F4F4F"/><path d="M12.8545 71.8203L11.4795 75.0625L14.8987 76.3663L16.2736 73.1241L12.8545 71.8203Z" fill="#4F4F4F"/><path d="M15.5264 65.1094L14.1514 68.3516L17.5706 69.6554L18.9456 66.4132L15.5264 65.1094Z" fill="#4F4F4F"/><path d="M18.4065 58.854L17.0315 62.0962L20.4507 63.4L21.8256 60.1578L18.4065 58.854Z" fill="#4F4F4F"/><path d="M23.9575 45.8862L22.5825 49.1284L26.0017 50.4322L27.3767 47.19L23.9575 45.8862Z" fill="#4F4F4F"/><path d="M167.347 107.33L165.972 110.572L169.392 111.876L170.767 108.634L167.347 107.33Z" fill="#4F4F4F"/><path d="M164.676 114.04L163.301 117.282L166.72 118.586L168.095 115.344L164.676 114.04Z" fill="#4F4F4F"/><path d="M170.227 101.072L168.852 104.314L172.271 105.618L173.646 102.376L170.227 101.072Z" fill="#4F4F4F"/><path d="M161.795 120.295L160.42 123.537L163.839 124.841L165.214 121.599L161.795 120.295Z" fill="#4F4F4F"/><path d="M159.123 127.004L157.748 130.247L161.167 131.55L162.542 128.308L159.123 127.004Z" fill="#4F4F4F"/><path d="M169.398 62.0425L166.009 63.4141L167.455 66.628L170.845 65.2564L169.398 62.0425Z" fill="#4F4F4F"/><path d="M172.606 68.5686L169.214 69.9346L170.655 73.1513L174.047 71.7853L172.606 68.5686Z" fill="#4F4F4F"/><path d="M166.369 55.4429L162.98 56.8145L164.426 60.0283L167.816 58.6568L166.369 55.4429Z" fill="#4F4F4F"/><path d="M160.794 42.4297L157.405 43.8013L158.851 47.0152L162.241 45.6436L160.794 42.4297Z" fill="#4F4F4F"/><path d="M163.806 49.4123L160.413 50.7783L161.854 53.995L165.246 52.629L163.806 49.4123Z" fill="#4F4F4F"/></svg>