<svg width="77" height="140" fill="none" xmlns="http://www.w3.org/2000/svg"><path d="M42.2454 0.522111C32.3644 -0.592468 22.4454 2.2638 14.6704 8.46257C6.89538 14.6613 1.90122 23.6948 0.78664 33.5758C-1.53436 54.1518 9.30575 98.8333 29.0694 117.33C38.3752 81.8922 70.9843 60.8728 75.2991 41.9809C79.9096 21.7941 62.8214 2.84311 42.2454 0.522111Z" fill="#E8C457"/><path d="M35.4116 46.2648C42.1647 46.2648 47.6392 40.7904 47.6392 34.0373C47.6392 27.2842 42.1647 21.8098 35.4116 21.8098C28.6585 21.8098 23.1841 27.2842 23.1841 34.0373C23.1841 40.7904 28.6585 46.2648 35.4116 46.2648Z" fill="white"/><path d="M30.0088 139.434C34.4319 139.434 38.0175 135.848 38.0175 131.425C38.0175 127.002 34.4319 123.417 30.0088 123.417C25.5857 123.417 22 127.002 22 131.425C22 135.848 25.5857 139.434 30.0088 139.434Z" fill="#E8C457"/></svg>