<svg width="40" height="74" fill="none" xmlns="http://www.w3.org/2000/svg"><path d="M22.1055 0.541793C16.8762 -0.0486185 11.6267 1.4644 7.51182 4.74798C3.397 8.03157 0.753916 12.8168 0.164039 18.0509C-1.06431 28.9503 4.67264 52.6188 15.1323 62.4166C20.0573 43.6448 37.3152 32.5105 39.5988 22.5032C42.0388 11.8099 32.9951 1.77126 22.1055 0.541793Z" fill="#E8C457"/><path d="M18.5 25.4166C22.0899 25.4166 25 22.2826 25 18.4166C25 14.5506 22.0899 11.4166 18.5 11.4166C14.9101 11.4166 12 14.5506 12 18.4166C12 22.2826 14.9101 25.4166 18.5 25.4166Z" fill="white"/><path d="M15.5 73.4166C17.9853 73.4166 20 71.6257 20 69.4166C20 67.2074 17.9853 65.4166 15.5 65.4166C13.0147 65.4166 11 67.2074 11 69.4166C11 71.6257 13.0147 73.4166 15.5 73.4166Z" fill="#E8C457"/></svg>